<?xml version="1.0" standalone="yes"?>
<svg xmlns="http://www.w3.org/2000/svg" width="1152" height="998">
<path style="fill:#ffffff; stroke:none;" d="M0 0L0 998L1152 998L1152 0L0 0z"/>
<path style="fill:#e0b179; stroke:none;" d="M526.667 361.333L527.333 361.667L526.667 361.333M161 362L162 363L161 362z"/>
<path style="fill:#955c39; stroke:none;" d="M162 362L163 363L162 362z"/>
<path style="fill:#060608; stroke:none;" d="M163.108 362.851C156.506 364.875 158.549 378.375 165.949 376.288C173.302 374.213 170.811 360.49 163.108 362.851z"/>
<path style="fill:#3d5cfc; stroke:none;" d="M166 362L167 363L166 362z"/>
<path style="fill:#e0b179; stroke:none;" d="M167 362L168 363L167 362M524 362L525 363L524 362z"/>
<path style="fill:#060608; stroke:none;" d="M507 371C524.789 372.614 519 399.198 519 412C513.594 408.307 508.741 403.436 502 402.333C469.67 397.04 462.958 447.112 471.069 468C475.719 479.976 488.908 489.291 502 484.895C509.294 482.446 513.319 476.7 519 472L519 485C525.387 483.9 536.908 480.685 539 474C524.014 473.304 527 458.064 527 447L527 362C521.189 363.586 510.272 365.803 507 371z"/>
<path style="fill:#3d5cfc; stroke:none;" d="M527 362L527 468L528 468L528 394L527 362z"/>
<path style="fill:#e0b179; stroke:none;" d="M665 362L666 363L665 362z"/>
<path style="fill:#955c39; stroke:none;" d="M666 362L667 363L666 362z"/>
<path style="fill:#060608; stroke:none;" d="M667.108 362.851C660.506 364.875 662.549 378.375 669.949 376.288C677.302 374.213 674.811 360.49 667.108 362.851z"/>
<path style="fill:#3d5cfc; stroke:none;" d="M670 362L671 363L670 362z"/>
<path style="fill:#e0b179; stroke:none;" d="M671 362L672 363L671 362z"/>
<path style="fill:#955c39; stroke:none;" d="M160 363L161 364L160 363z"/>
<path style="fill:#3d5cfc; stroke:none;" d="M168 363L169 364L168 363z"/>
<path style="fill:#e0b179; stroke:none;" d="M521 363L522 364L521 363z"/>
<path style="fill:#955c39; stroke:none;" d="M522 363L523 364L522 363M664 363L665 364L664 363z"/>
<path style="fill:#3d5cfc; stroke:none;" d="M672 363L673 364L672 363z"/>
<path style="fill:#e0b179; stroke:none;" d="M159 364L160 365L159 364z"/>
<path style="fill:#3d5cfc; stroke:none;" d="M169 364L170 365L169 364z"/>
<path style="fill:#955c39; stroke:none;" d="M519 364L520 365L519 364z"/>
<path style="fill:#e0b179; stroke:none;" d="M663 364L664 365L663 364z"/>
<path style="fill:#3d5cfc; stroke:none;" d="M673 364L674 365L673 364z"/>
<path style="fill:#955c39; stroke:none;" d="M159 365L160 366L159 365z"/>
<path style="fill:#e0b179; stroke:none;" d="M170 365L171 366L170 365M516 365L517 366L516 365z"/>
<path style="fill:#955c39; stroke:none;" d="M663 365L664 366L663 365z"/>
<path style="fill:#e0b179; stroke:none;" d="M674 365L675 366L674 365M158 366L159 367L158 366z"/>
<path style="fill:#3d5cfc; stroke:none;" d="M170.333 366.667L170.667 367.333L170.333 366.667z"/>
<path style="fill:#e0b179; stroke:none;" d="M513 366L514 367L513 366z"/>
<path style="fill:#955c39; stroke:none;" d="M514 366L515 367L514 366z"/>
<path style="fill:#e0b179; stroke:none;" d="M662 366L663 367L662 366z"/>
<path style="fill:#3d5cfc; stroke:none;" d="M674.333 366.667L674.667 367.333L674.333 366.667z"/>
<path style="fill:#955c39; stroke:none;" d="M158 367L158 372L159 372L158 367z"/>
<path style="fill:#e0b179; stroke:none;" d="M171 367L171 372L172 372L171 367M510 367L511 368L510 367z"/>
<path style="fill:#955c39; stroke:none;" d="M511 367L512 368L511 367M662 367L662 372L663 372L662 367z"/>
<path style="fill:#e0b179; stroke:none;" d="M675 367L675 372L676 372L675 367z"/>
<path style="fill:#955c39; stroke:none;" d="M507 368L508 369L507 368z"/>
<path style="fill:#e0b179; stroke:none;" d="M506 369L506 372L507 372L506 369z"/>
<path style="fill:#3d5cfc; stroke:none;" d="M170 371L170 374L171 374L170 371z"/>
<path style="fill:#955c39; stroke:none;" d="M507 371L507 372L512 372L507 371z"/>
<path style="fill:#3d5cfc; stroke:none;" d="M674 371L674 374L675 374L674 371z"/>
<path style="fill:#e0b179; stroke:none;" d="M158 372L159 373L158 372M513 372L514 373L513 372z"/>
<path style="fill:#955c39; stroke:none;" d="M514 372L515 373L514 372z"/>
<path style="fill:#e0b179; stroke:none;" d="M662 372L663 373L662 372z"/>
<path style="fill:#955c39; stroke:none;" d="M159 373L160 374L159 373z"/>
<path style="fill:#e0b179; stroke:none;" d="M515 373L516 374L515 373z"/>
<path style="fill:#955c39; stroke:none;" d="M663 373L664 374L663 373z"/>
<path style="fill:#e0b179; stroke:none;" d="M159 374L160 375L159 374z"/>
<path style="fill:#3d5cfc; stroke:none;" d="M169 374L168 376L169 374z"/>
<path style="fill:#e0b179; stroke:none;" d="M516 374L517 375L516 374M663 374L664 375L663 374z"/>
<path style="fill:#3d5cfc; stroke:none;" d="M673 374L672 376L673 374z"/>
<path style="fill:#e0b179; stroke:none;" d="M160 375L161 376L160 375M169 375L170 376L169 375z"/>
<path style="fill:#955c39; stroke:none;" d="M517 375L518 376L517 375z"/>
<path style="fill:#e0b179; stroke:none;" d="M664 375L665 376L664 375M673 375L674 376L673 375M161 376L162 377L161 376z"/>
<path style="fill:#955c39; stroke:none;" d="M162 376L163 377L162 376z"/>
<path style="fill:#e0b179; stroke:none;" d="M167 376L168 377L167 376M517 376L518 377L517 376M665 376L666 377L665 376z"/>
<path style="fill:#955c39; stroke:none;" d="M666 376L667 377L666 376z"/>
<path style="fill:#e0b179; stroke:none;" d="M671 376L672 377L671 376z"/>
<path style="fill:#955c39; stroke:none;" d="M518.333 377.667L518.667 378.333L518.333 377.667z"/>
<path style="fill:#e0b179; stroke:none;" d="M518 379L517 411C521.538 407.035 520.305 384.493 518 379M243.667 401.333L244.333 401.667L243.667 401.333z"/>
<path style="fill:#955c39; stroke:none;" d="M245 401L245 402L249 402L245 401z"/>
<path style="fill:#060608; stroke:none;" d="M264 471C264.036 475.341 264.071 481.118 267.649 484.257C273.879 489.723 282.628 480.722 284 475C269.405 480.268 270 462.881 270 453C270 434.929 276.743 402.994 251 401.749C247.738 401.591 244.187 401.779 241 402.529C233.004 404.409 219.1 415.998 226.179 425.471C228.011 427.922 231.48 427.127 232.972 424.757C235.546 420.67 232.787 415.233 235.603 411.044C241.659 402.036 256.933 403.604 261.686 413.004C263.75 417.087 265.825 426.55 262.397 430.351C252.026 441.851 233.224 440.664 224.533 456C217.832 467.826 222.96 487.368 239 485.823C249.644 484.797 255.852 476.734 264 471z"/>
<path style="fill:#3d5cfc; stroke:none;" d="M250 401L251 402L250 401z"/>
<path style="fill:#955c39; stroke:none;" d="M251.667 401.333L252.333 401.667L251.667 401.333z"/>
<path style="fill:#e0b179; stroke:none;" d="M253.667 401.333L254.333 401.667L253.667 401.333M341 401L341 402L345 402L341 401M606 401L606 402L610 402L606 401M836 401L837 402L836 401z"/>
<path style="fill:#955c39; stroke:none;" d="M837 401L837 402L841 402L837 401z"/>
<path style="fill:#3d5cfc; stroke:none;" d="M841 401L842 402L841 401z"/>
<path style="fill:#955c39; stroke:none;" d="M842.667 401.333L843.333 401.667L842.667 401.333z"/>
<path style="fill:#e0b179; stroke:none;" d="M844.667 401.333L845.333 401.667L844.667 401.333M942 401L942 402L946 402L942 401M239 402L240 403L239 402z"/>
<path style="fill:#955c39; stroke:none;" d="M240 402L241 403L240 402z"/>
<path style="fill:#3d5cfc; stroke:none;" d="M257 402L258 403L257 402z"/>
<path style="fill:#e0b179; stroke:none;" d="M258 402L259 403L258 402M316 402L317 418L318 418L316 402M336 402L337 403L336 402z"/>
<path style="fill:#955c39; stroke:none;" d="M337 402L338 403L337 402z"/>
<path style="fill:#060608; stroke:none;" d="M316 419L316 403C310.171 404.972 300.491 406.717 297 412C302.467 412.177 306.801 414.343 308.427 420C310.008 425.499 309 432.325 309 438C309 448.8 311.271 462.579 308.276 473C306.814 478.09 302.995 480.992 298 482L298 485L329 485L329 482C311.12 479.586 317 452.076 317 439C317 433.521 315.782 426.629 319.343 422.018C325.989 413.412 339.653 407.414 347.431 418.018C351.359 423.375 351 429.717 351 436L351 460C351 465.619 351.823 472.107 348.389 476.977C345.923 480.473 341.197 480.906 340 485L370 485C368.345 479.339 360.309 479.091 359.157 472C356.176 453.642 361.563 434.383 357.528 416C354.984 404.412 344.874 398.553 334 404.292C326.963 408.006 322.48 414.63 316 419z"/>
<path style="fill:#3d5cfc; stroke:none;" d="M347 402L348 403L347 402z"/>
<path style="fill:#e0b179; stroke:none;" d="M348 402L349 403L348 402M493 402L494 403L493 402z"/>
<path style="fill:#955c39; stroke:none;" d="M494.667 402.333L495.333 402.667L494.667 402.333M503 402L504 403L503 402z"/>
<path style="fill:#e0b179; stroke:none;" d="M504 402L505 403L504 402M584 402L585 403L584 402z"/>
<path style="fill:#955c39; stroke:none;" d="M585 402L586 403L585 402z"/>
<path style="fill:#e0b179; stroke:none;" d="M586 402C586 407.091 583.978 417.486 588 421L586 402M603 402L604 403L603 402z"/>
<path style="fill:#955c39; stroke:none;" d="M604 402L605 403L604 402z"/>
<path style="fill:#060608; stroke:none;" d="M586 422L586 403C580.432 404.443 566.691 408.196 565 414C570.441 413.147 574.764 414.339 576.792 420C580.614 430.672 578 445.765 578 457C578 462.541 578.714 468.687 576.792 473.995C574.561 480.157 566.619 479.461 565 485L601 485C597.78 480.013 590.416 481.16 587.318 474.985C584.885 470.135 586 463.261 586 458C586 443.344 583.128 427.548 594.3 416.113C599.734 410.551 612.722 419.591 614.681 412.852C616.755 405.72 610.816 400.282 604 403.01C596.025 406.202 591.544 415.926 586 422z"/>
<path style="fill:#3d5cfc; stroke:none;" d="M611 402L612 403L611 402z"/>
<path style="fill:#e0b179; stroke:none;" d="M832 402L833 403L832 402z"/>
<path style="fill:#955c39; stroke:none;" d="M833 402L834 403L833 402z"/>
<path style="fill:#060608; stroke:none;" d="M870 457L869 457C866.003 461.392 862.979 465.707 858.911 469.191C855.95 471.726 852.741 473.781 849 474.945C821.997 483.347 816 451.41 816 432L867 432C866.565 411.057 847.565 393.427 827 405.363C816.388 411.523 810.359 424.117 809.171 436C807.75 450.201 808.58 467.995 819.301 478.699C838.11 497.479 864.987 478.105 870 457z"/>
<path style="fill:#3d5cfc; stroke:none;" d="M848 402L849 403L848 402z"/>
<path style="fill:#e0b179; stroke:none;" d="M849 402L850 403L849 402M920 402L921 403L920 402z"/>
<path style="fill:#955c39; stroke:none;" d="M921 402L922 403L921 402z"/>
<path style="fill:#e0b179; stroke:none;" d="M922 402C922 407.091 919.978 417.486 924 421L922 402M939 402L940 403L939 402z"/>
<path style="fill:#955c39; stroke:none;" d="M940 402L941 403L940 402z"/>
<path style="fill:#060608; stroke:none;" d="M922 422L922 403C916.432 404.443 902.691 408.196 901 414C906.441 413.147 910.764 414.339 912.792 420C916.614 430.672 914 445.765 914 457C914 462.541 914.714 468.687 912.792 473.995C910.561 480.157 902.619 479.461 901 485L937 485C933.78 480.013 926.416 481.16 923.318 474.985C920.885 470.135 922 463.261 922 458C922 443.344 919.128 427.548 930.3 416.113C935.734 410.551 948.722 419.591 950.681 412.852C952.755 405.72 946.816 400.282 940 403.01C932.025 406.202 927.544 415.926 922 422z"/>
<path style="fill:#3d5cfc; stroke:none;" d="M947 402L948 403L947 402z"/>
<path style="fill:#e0b179; stroke:none;" d="M168 403L169 404L168 403z"/>
<path style="fill:#955c39; stroke:none;" d="M169 403L170 404L169 403z"/>
<path style="fill:#3d5cfc; stroke:none;" d="M170 403L170 472L171 472L171 425L170 403z"/>
<path style="fill:#955c39; stroke:none;" d="M237 403L238 404L237 403z"/>
<path style="fill:#3d5cfc; stroke:none;" d="M260 403L261 404L260 403z"/>
<path style="fill:#e0b179; stroke:none;" d="M261 403L262 404L261 403M313 403L314 404L313 403z"/>
<path style="fill:#955c39; stroke:none;" d="M314 403L315 404L314 403z"/>
<path style="fill:#3d5cfc; stroke:none;" d="M316 403L316 419L317 419L316 403z"/>
<path style="fill:#e0b179; stroke:none;" d="M334 403L335 404L334 403z"/>
<path style="fill:#955c39; stroke:none;" d="M335 403L336 404L335 403z"/>
<path style="fill:#e0b179; stroke:none;" d="M350 403L351 404L350 403M490 403L491 404L490 403z"/>
<path style="fill:#955c39; stroke:none;" d="M491 403L492 404L491 403z"/>
<path style="fill:#3d5cfc; stroke:none;" d="M506 403L507 404L506 403z"/>
<path style="fill:#e0b179; stroke:none;" d="M582 403L583 404L582 403z"/>
<path style="fill:#955c39; stroke:none;" d="M583 403L584 404L583 403z"/>
<path style="fill:#e0b179; stroke:none;" d="M601 403L602 404L601 403z"/>
<path style="fill:#955c39; stroke:none;" d="M602 403L603 404L602 403z"/>
<path style="fill:#e0b179; stroke:none;" d="M613 403L614 404L613 403M672 403L673 404L672 403z"/>
<path style="fill:#955c39; stroke:none;" d="M673 403L674 404L673 403z"/>
<path style="fill:#3d5cfc; stroke:none;" d="M674 403L674 472L675 472L675 425L674 403z"/>
<path style="fill:#e0b179; stroke:none;" d="M717.333 403.667L717.667 404.333L717.333 403.667z"/>
<path style="fill:#955c39; stroke:none;" d="M718 403L720 406L718 403z"/>
<path style="fill:#060608; stroke:none;" d="M719 403L728.676 414L756 484C763.95 465.527 768.634 445.099 775 426C777.656 418.032 779.573 407.908 789 406L789 403L770 403C771.547 405.689 774.843 407.704 775.049 411.018C775.337 415.678 772.383 421.584 771.025 426C767.634 437.029 765.451 456.963 757 465C754.836 450.55 747.008 435.741 742.054 422C739.621 415.25 738.376 407.761 747 406L747 403L719 403z"/>
<path style="fill:#3d5cfc; stroke:none;" d="M747.333 403.667L747.667 404.333L747.333 403.667z"/>
<path style="fill:#955c39; stroke:none;" d="M769 403L771 406L769 403z"/>
<path style="fill:#3d5cfc; stroke:none;" d="M789 403L789 406L790 406L789 403z"/>
<path style="fill:#e0b179; stroke:none;" d="M829 403L830 404L829 403z"/>
<path style="fill:#955c39; stroke:none;" d="M830 403L831 404L830 403z"/>
<path style="fill:#3d5cfc; stroke:none;" d="M851 403L852 404L851 403z"/>
<path style="fill:#e0b179; stroke:none;" d="M918 403L919 404L918 403z"/>
<path style="fill:#955c39; stroke:none;" d="M919 403L920 404L919 403z"/>
<path style="fill:#e0b179; stroke:none;" d="M937 403L938 404L937 403z"/>
<path style="fill:#955c39; stroke:none;" d="M938 403L939 404L938 403z"/>
<path style="fill:#e0b179; stroke:none;" d="M949 403L950 404L949 403M166 404L167 405L166 404z"/>
<path style="fill:#060608; stroke:none;" d="M148 414C152.509 414.015 157.136 413.984 159.91 418.189C162.698 422.414 162 428.199 162 433C162 445.089 165.516 463.852 160.347 474.985C157.423 481.282 150.215 480.021 147 485L184 485L171.653 474.985L170 452L170 404C163.762 405.108 151.64 408.666 148 414z"/>
<path style="fill:#e0b179; stroke:none;" d="M234 404L235 405L234 404z"/>
<path style="fill:#955c39; stroke:none;" d="M235 404L236 405L235 404z"/>
<path style="fill:#3d5cfc; stroke:none;" d="M262 404L263 405L262 404z"/>
<path style="fill:#955c39; stroke:none;" d="M311 404L312 405L311 404z"/>
<path style="fill:#e0b179; stroke:none;" d="M332 404L333 405L332 404z"/>
<path style="fill:#955c39; stroke:none;" d="M333 404L334 405L333 404z"/>
<path style="fill:#3d5cfc; stroke:none;" d="M351 404L352 405L351 404z"/>
<path style="fill:#e0b179; stroke:none;" d="M488 404L489 405L488 404z"/>
<path style="fill:#3d5cfc; stroke:none;" d="M508 404L509 405L508 404z"/>
<path style="fill:#e0b179; stroke:none;" d="M580 404L581 405L580 404z"/>
<path style="fill:#955c39; stroke:none;" d="M581 404L582 405L581 404z"/>
<path style="fill:#e0b179; stroke:none;" d="M600 404L601 405L600 404M614 404L615 405L614 404M670 404L671 405L670 404z"/>
<path style="fill:#060608; stroke:none;" d="M652 414C656.509 414.015 661.136 413.984 663.911 418.189C666.698 422.414 666 428.199 666 433C666 445.089 669.516 463.853 664.347 474.985C661.423 481.282 654.215 480.021 651 485L688 485L675.653 474.985L674 452L674 404C667.762 405.108 655.64 408.666 652 414z"/>
<path style="fill:#e0b179; stroke:none;" d="M827 404L828 405L827 404z"/>
<path style="fill:#955c39; stroke:none;" d="M828 404L829 405L828 404z"/>
<path style="fill:#3d5cfc; stroke:none;" d="M853 404L854 405L853 404z"/>
<path style="fill:#e0b179; stroke:none;" d="M916 404L917 405L916 404z"/>
<path style="fill:#955c39; stroke:none;" d="M917 404L918 405L917 404z"/>
<path style="fill:#e0b179; stroke:none;" d="M936 404L937 405L936 404M950 404L951 405L950 404M163 405L164 406L163 405z"/>
<path style="fill:#955c39; stroke:none;" d="M164 405L165 406L164 405z"/>
<path style="fill:#e0b179; stroke:none;" d="M233 405L234 406L233 405z"/>
<path style="fill:#3d5cfc; stroke:none;" d="M243 405L244 406L243 405z"/>
<path style="fill:#e0b179; stroke:none;" d="M244 405L245 406L244 405M251 405L252 406L251 405z"/>
<path style="fill:#955c39; stroke:none;" d="M252 405L253 406L252 405z"/>
<path style="fill:#e0b179; stroke:none;" d="M264 405L265 406L264 405M308 405L309 406L308 405z"/>
<path style="fill:#955c39; stroke:none;" d="M309 405L310 406L309 405M331 405L332 406L331 405z"/>
<path style="fill:#3d5cfc; stroke:none;" d="M352 405L353 406L352 405z"/>
<path style="fill:#e0b179; stroke:none;" d="M486 405L487 406L486 405z"/>
<path style="fill:#955c39; stroke:none;" d="M487 405L488 406L487 405z"/>
<path style="fill:#3d5cfc; stroke:none;" d="M510 405L511 406L510 405z"/>
<path style="fill:#e0b179; stroke:none;" d="M578 405L579 406L578 405z"/>
<path style="fill:#955c39; stroke:none;" d="M599 405L600 406L599 405z"/>
<path style="fill:#3d5cfc; stroke:none;" d="M614 405L615 406L614 405z"/>
<path style="fill:#e0b179; stroke:none;" d="M667 405L668 406L667 405z"/>
<path style="fill:#955c39; stroke:none;" d="M668 405L669 406L668 405z"/>
<path style="fill:#e0b179; stroke:none;" d="M747 405L748 406L747 405M769 405L770 406L769 405z"/>
<path style="fill:#955c39; stroke:none;" d="M826 405L827 406L826 405z"/>
<path style="fill:#3d5cfc; stroke:none;" d="M854 405L855 406L854 405z"/>
<path style="fill:#e0b179; stroke:none;" d="M855 405L856 406L855 405M914 405L915 406L914 405z"/>
<path style="fill:#955c39; stroke:none;" d="M935 405L936 406L935 405z"/>
<path style="fill:#3d5cfc; stroke:none;" d="M950 405L951 406L950 405z"/>
<path style="fill:#e0b179; stroke:none;" d="M161 406L162 407L161 406z"/>
<path style="fill:#955c39; stroke:none;" d="M162 406L163 407L162 406M232 406L233 407L232 406z"/>
<path style="fill:#3d5cfc; stroke:none;" d="M240 406L241 407L240 406z"/>
<path style="fill:#e0b179; stroke:none;" d="M241 406L242 407L241 406M255 406L256 407L255 406z"/>
<path style="fill:#3d5cfc; stroke:none;" d="M265 406L266 407L265 406z"/>
<path style="fill:#e0b179; stroke:none;" d="M305 406L306 407L305 406z"/>
<path style="fill:#955c39; stroke:none;" d="M306 406L307 407L306 406z"/>
<path style="fill:#e0b179; stroke:none;" d="M329 406L330 407L329 406z"/>
<path style="fill:#955c39; stroke:none;" d="M330 406L331 407L330 406z"/>
<path style="fill:#3d5cfc; stroke:none;" d="M353 406L354 407L353 406z"/>
<path style="fill:#955c39; stroke:none;" d="M485 406L486 407L485 406z"/>
<path style="fill:#3d5cfc; stroke:none;" d="M511 406L512 407L511 406z"/>
<path style="fill:#e0b179; stroke:none;" d="M512 406L513 407L512 406z"/>
<path style="fill:#955c39; stroke:none;" d="M576 406L577 407L576 406M598 406L599 407L598 406z"/>
<path style="fill:#e0b179; stroke:none;" d="M615 406L616 407L615 406M665 406L666 407L665 406z"/>
<path style="fill:#955c39; stroke:none;" d="M666 406L667 407L666 406M723 406L724 407L723 406z"/>
<path style="fill:#3d5cfc; stroke:none;" d="M743 406L744 407L743 406z"/>
<path style="fill:#e0b179; stroke:none;" d="M772 406L773 407L772 406z"/>
<path style="fill:#955c39; stroke:none;" d="M773 406L774 407L773 406z"/>
<path style="fill:#3d5cfc; stroke:none;" d="M785 406L786 407L785 406z"/>
<path style="fill:#e0b179; stroke:none;" d="M786 406L787 407L786 406M824 406L825 407L824 406z"/>
<path style="fill:#3d5cfc; stroke:none;" d="M856 406L857 407L856 406z"/>
<path style="fill:#955c39; stroke:none;" d="M912 406L913 407L912 406M934 406L935 407L934 406z"/>
<path style="fill:#e0b179; stroke:none;" d="M951 406L952 407L951 406M159 407L160 408L159 407M230 407L231 408L230 407z"/>
<path style="fill:#3d5cfc; stroke:none;" d="M238 407L239 408L238 407z"/>
<path style="fill:#e0b179; stroke:none;" d="M239 407L240 408L239 407z"/>
<path style="fill:#955c39; stroke:none;" d="M257 407L258 408L257 407z"/>
<path style="fill:#e0b179; stroke:none;" d="M266 407L267 408L266 407z"/>
<path style="fill:#955c39; stroke:none;" d="M303 407L304 408L303 407z"/>
<path style="fill:#e0b179; stroke:none;" d="M328 407L329 408L328 407z"/>
<path style="fill:#3d5cfc; stroke:none;" d="M354 407L355 408L354 407z"/>
<path style="fill:#e0b179; stroke:none;" d="M483 407L484 408L483 407z"/>
<path style="fill:#955c39; stroke:none;" d="M484 407L485 408L484 407M494 407L495 408L494 407z"/>
<path style="fill:#e0b179; stroke:none;" d="M495 407L496 408L495 407z"/>
<path style="fill:#ffffff; stroke:none;" d="M496 407.468C473.733 411.712 473.236 445.556 480.338 462C483.947 470.355 492.038 478.923 502 477.493C508.084 476.619 513.787 472.503 516.543 467C519.15 461.796 518 454.649 518 449C518 433.829 520.771 402.747 496 407.468z"/>
<path style="fill:#955c39; stroke:none;" d="M504 407L505 408L504 407z"/>
<path style="fill:#e0b179; stroke:none;" d="M513 407L514 408L513 407M573 407L574 408L573 407z"/>
<path style="fill:#955c39; stroke:none;" d="M574 407L575 408L574 407M597 407L598 408L597 407z"/>
<path style="fill:#3d5cfc; stroke:none;" d="M615 407L615 414L616 414L615 407z"/>
<path style="fill:#e0b179; stroke:none;" d="M663 407L664 408L663 407M724 407L725 408L724 407z"/>
<path style="fill:#3d5cfc; stroke:none;" d="M741 407L740 410L741 410L741 407z"/>
<path style="fill:#955c39; stroke:none;" d="M774 407L775 408L774 407z"/>
<path style="fill:#3d5cfc; stroke:none;" d="M783 407L784 408L783 407z"/>
<path style="fill:#955c39; stroke:none;" d="M823 407L824 408L823 407z"/>
<path style="fill:#3d5cfc; stroke:none;" d="M831 407L832 408L831 407z"/>
<path style="fill:#e0b179; stroke:none;" d="M832 407L833 408L832 407z"/>
<path style="fill:#ffffff; stroke:none;" d="M817 427L856 428C854.217 414.773 842.424 400.029 828.004 409.703C821.992 413.736 819.503 420.548 817 427z"/>
<path style="fill:#e0b179; stroke:none;" d="M841 407L842 408L841 407z"/>
<path style="fill:#955c39; stroke:none;" d="M842 407L843 408L842 407z"/>
<path style="fill:#3d5cfc; stroke:none;" d="M857 407L858 408L857 407z"/>
<path style="fill:#e0b179; stroke:none;" d="M909 407L910 408L909 407z"/>
<path style="fill:#955c39; stroke:none;" d="M910 407L911 408L910 407M933 407L934 408L933 407z"/>
<path style="fill:#3d5cfc; stroke:none;" d="M951 407L951 414L952 414L951 407z"/>
<path style="fill:#e0b179; stroke:none;" d="M156 408L157 409L156 408z"/>
<path style="fill:#955c39; stroke:none;" d="M157 408L158 409L157 408z"/>
<path style="fill:#e0b179; stroke:none;" d="M229 408L230 409L229 408z"/>
<path style="fill:#3d5cfc; stroke:none;" d="M237 408L238 409L237 408z"/>
<path style="fill:#e0b179; stroke:none;" d="M258 408L259 409L258 408M267 408L268 409L267 408M300 408L301 409L300 408M327 408L328 409L327 408M355 408L356 409L355 408M482 408L483 409L482 408z"/>
<path style="fill:#3d5cfc; stroke:none;" d="M491 408L492 409L491 408z"/>
<path style="fill:#e0b179; stroke:none;" d="M506 408L507 409L506 408z"/>
<path style="fill:#955c39; stroke:none;" d="M507 408L508 409L507 408z"/>
<path style="fill:#3d5cfc; stroke:none;" d="M514 408L515 409L514 408z"/>
<path style="fill:#e0b179; stroke:none;" d="M571 408L572 409L571 408z"/>
<path style="fill:#955c39; stroke:none;" d="M572 408L573 409L572 408M596 408L597 409L596 408z"/>
<path style="fill:#e0b179; stroke:none;" d="M660 408L661 409L660 408z"/>
<path style="fill:#955c39; stroke:none;" d="M661 408L662 409L661 408M725 408L726 409L725 408z"/>
<path style="fill:#e0b179; stroke:none;" d="M741 408L742 409L741 408M774 408L774 413L775 413L774 408z"/>
<path style="fill:#3d5cfc; stroke:none;" d="M782 408L781 410L782 408z"/>
<path style="fill:#955c39; stroke:none;" d="M822 408L823 409L822 408z"/>
<path style="fill:#3d5cfc; stroke:none;" d="M829 408L830 409L829 408z"/>
<path style="fill:#955c39; stroke:none;" d="M845 408L846 409L845 408z"/>
<path style="fill:#3d5cfc; stroke:none;" d="M858 408L859 409L858 408z"/>
<path style="fill:#e0b179; stroke:none;" d="M907 408L908 409L907 408z"/>
<path style="fill:#955c39; stroke:none;" d="M908 408L909 409L908 408M932 408L933 409L932 408z"/>
<path style="fill:#e0b179; stroke:none;" d="M154 409L155 410L154 409M228 409L227 411L228 409M236 409L237 410L236 409M259 409L260 410L259 409z"/>
<path style="fill:#3d5cfc; stroke:none;" d="M267 409L268 410L267 409z"/>
<path style="fill:#e0b179; stroke:none;" d="M297 409L298 410L297 409z"/>
<path style="fill:#955c39; stroke:none;" d="M298 409L299 410L298 409M326 409L327 410L326 409z"/>
<path style="fill:#3d5cfc; stroke:none;" d="M355 409L356 410L355 409z"/>
<path style="fill:#e0b179; stroke:none;" d="M481 409L482 410L481 409z"/>
<path style="fill:#3d5cfc; stroke:none;" d="M489 409L490 410L489 409z"/>
<path style="fill:#e0b179; stroke:none;" d="M508 409L509 410L508 409z"/>
<path style="fill:#955c39; stroke:none;" d="M509 409L510 410L509 409z"/>
<path style="fill:#3d5cfc; stroke:none;" d="M515 409L516 410L515 409z"/>
<path style="fill:#955c39; stroke:none;" d="M569 409L570 410L569 409z"/>
<path style="fill:#e0b179; stroke:none;" d="M595 409L594 411L595 409M658 409L659 410L658 409z"/>
<path style="fill:#955c39; stroke:none;" d="M726 409L727 410L726 409M775 409L775 412L776 412L775 409z"/>
<path style="fill:#e0b179; stroke:none;" d="M782 409L783 410L782 409z"/>
<path style="fill:#955c39; stroke:none;" d="M821 409L822 410L821 409z"/>
<path style="fill:#3d5cfc; stroke:none;" d="M827 409L828 410L827 409z"/>
<path style="fill:#955c39; stroke:none;" d="M847 409L848 410L847 409z"/>
<path style="fill:#3d5cfc; stroke:none;" d="M859 409L860 410L859 409z"/>
<path style="fill:#955c39; stroke:none;" d="M905 409L906 410L905 409z"/>
<path style="fill:#e0b179; stroke:none;" d="M931 409L930 411L931 409M151 410L152 411L151 410z"/>
<path style="fill:#955c39; stroke:none;" d="M152 410L153 411L152 410M228 410L229 411L228 410z"/>
<path style="fill:#e0b179; stroke:none;" d="M235 410L236 411L235 410z"/>
<path style="fill:#955c39; stroke:none;" d="M260 410L261 413L262 413L260 410z"/>
<path style="fill:#e0b179; stroke:none;" d="M268 410L269 411L268 410M296.333 410.667L296.667 411.333L296.333 410.667z"/>
<path style="fill:#955c39; stroke:none;" d="M325 410L326 411L325 410z"/>
<path style="fill:#e0b179; stroke:none;" d="M356 410L357 411L356 410M480 410L481 411L480 410z"/>
<path style="fill:#3d5cfc; stroke:none;" d="M487 410L488 411L487 410z"/>
<path style="fill:#e0b179; stroke:none;" d="M488 410L489 411L488 410z"/>
<path style="fill:#955c39; stroke:none;" d="M510 410L511 411L510 410z"/>
<path style="fill:#3d5cfc; stroke:none;" d="M516 410L517 411L516 410z"/>
<path style="fill:#e0b179; stroke:none;" d="M566 410L567 411L566 410z"/>
<path style="fill:#955c39; stroke:none;" d="M567 410L568 411L567 410M595 410L596 411L595 410z"/>
<path style="fill:#e0b179; stroke:none;" d="M616 410L617 411L616 410M655 410L656 411L655 410z"/>
<path style="fill:#955c39; stroke:none;" d="M656 410L657 411L656 410z"/>
<path style="fill:#e0b179; stroke:none;" d="M726 410L727 411L726 410M740 410L740 415L741 415L740 410M781 410L782 411L781 410M819 410L820 411L819 410z"/>
<path style="fill:#955c39; stroke:none;" d="M820 410L821 411L820 410z"/>
<path style="fill:#e0b179; stroke:none;" d="M826 410L827 411L826 410M848 410L849 411L848 410z"/>
<path style="fill:#3d5cfc; stroke:none;" d="M860 410L861 411L860 410z"/>
<path style="fill:#e0b179; stroke:none;" d="M902 410L903 411L902 410z"/>
<path style="fill:#955c39; stroke:none;" d="M903 410L904 411L903 410M931 410L932 411L931 410z"/>
<path style="fill:#e0b179; stroke:none;" d="M952 410L953 411L952 410M148 411L149 412L148 411z"/>
<path style="fill:#955c39; stroke:none;" d="M149 411L150 412L149 411M227 411L228 412L227 411z"/>
<path style="fill:#3d5cfc; stroke:none;" d="M234 411L235 412L234 411z"/>
<path style="fill:#e0b179; stroke:none;" d="M260 411L261 412L260 411z"/>
<path style="fill:#3d5cfc; stroke:none;" d="M268 411L269 412L268 411z"/>
<path style="fill:#955c39; stroke:none;" d="M324 411L325 412L324 411z"/>
<path style="fill:#3d5cfc; stroke:none;" d="M356.333 411.667L356.667 412.333L356.333 411.667z"/>
<path style="fill:#e0b179; stroke:none;" d="M479 411L480 412L479 411z"/>
<path style="fill:#3d5cfc; stroke:none;" d="M486 411L487 412L486 411z"/>
<path style="fill:#955c39; stroke:none;" d="M511 411L512 412L511 411z"/>
<path style="fill:#3d5cfc; stroke:none;" d="M517 411L518 412L517 411z"/>
<path style="fill:#955c39; stroke:none;" d="M518 411L519 412L518 411z"/>
<path style="fill:#e0b179; stroke:none;" d="M564 411L565 412L564 411z"/>
<path style="fill:#955c39; stroke:none;" d="M594 411L595 412L594 411z"/>
<path style="fill:#e0b179; stroke:none;" d="M652 411L653 412L652 411z"/>
<path style="fill:#955c39; stroke:none;" d="M653 411L654 412L653 411M727 411L728 412L727 411z"/>
<path style="fill:#3d5cfc; stroke:none;" d="M780 411L781 412L780 411z"/>
<path style="fill:#955c39; stroke:none;" d="M819 411L820 412L819 411z"/>
<path style="fill:#e0b179; stroke:none;" d="M825 411L826 412L825 411M849 411L850 412L849 411M861 411L863 413L861 411M900 411L901 412L900 411z"/>
<path style="fill:#955c39; stroke:none;" d="M930 411L931 412L930 411z"/>
<path style="fill:#e0b179; stroke:none;" d="M147 412L147 415L148 415L147 412z"/>
<path style="fill:#955c39; stroke:none;" d="M226 412L227 413L226 412z"/>
<path style="fill:#e0b179; stroke:none;" d="M234 412L234 417L235 417L234 412M269 412L270 413L269 412M297.667 412.333L298.333 412.667L297.667 412.333M302 412L303 413L302 412z"/>
<path style="fill:#955c39; stroke:none;" d="M303 412L304 413L303 412M323 412L324 413L323 412z"/>
<path style="fill:#3d5cfc; stroke:none;" d="M332 412L333 413L332 412z"/>
<path style="fill:#e0b179; stroke:none;" d="M333.667 412.333L334.333 412.667L333.667 412.333M337.667 412.333L338.333 412.667L337.667 412.333z"/>
<path style="fill:#955c39; stroke:none;" d="M339 412L340 413L339 412z"/>
<path style="fill:#e0b179; stroke:none;" d="M357.333 412.667L357.667 413.333L357.333 412.667M478 412L477 414L478 412z"/>
<path style="fill:#3d5cfc; stroke:none;" d="M485 412L486 413L485 412z"/>
<path style="fill:#e0b179; stroke:none;" d="M512 412L513 413L512 412z"/>
<path style="fill:#955c39; stroke:none;" d="M564.333 412.667L564.667 413.333L564.333 412.667M593 412L594 413L593 412z"/>
<path style="fill:#3d5cfc; stroke:none;" d="M598 412L599 413L598 412z"/>
<path style="fill:#955c39; stroke:none;" d="M599.667 412.333L600.333 412.667L599.667 412.333z"/>
<path style="fill:#e0b179; stroke:none;" d="M651 412L651 415L652 415L651 412M727 412L728 413L727 412M780 412L781 413L780 412z"/>
<path style="fill:#955c39; stroke:none;" d="M818 412L819 413L818 412z"/>
<path style="fill:#e0b179; stroke:none;" d="M824 412L825 413L824 412M850 412L851 413L850 412z"/>
<path style="fill:#3d5cfc; stroke:none;" d="M861 412L862 413L861 412z"/>
<path style="fill:#955c39; stroke:none;" d="M900.333 412.667L900.667 413.333L900.333 412.667M929 412L930 413L929 412z"/>
<path style="fill:#3d5cfc; stroke:none;" d="M934 412L935 413L934 412z"/>
<path style="fill:#955c39; stroke:none;" d="M935.667 412.333L936.333 412.667L935.667 412.333z"/>
<path style="fill:#e0b179; stroke:none;" d="M225 413L226 414L225 413M261 413L262 414L261 413z"/>
<path style="fill:#3d5cfc; stroke:none;" d="M269 413L269 416L270 416L269 413z"/>
<path style="fill:#e0b179; stroke:none;" d="M304 413L305 414L304 413z"/>
<path style="fill:#955c39; stroke:none;" d="M322 413L323 414L322 413z"/>
<path style="fill:#3d5cfc; stroke:none;" d="M329 413L330 414L329 413z"/>
<path style="fill:#e0b179; stroke:none;" d="M330 413L331 414L330 413z"/>
<path style="fill:#955c39; stroke:none;" d="M342 413L343 414L342 413z"/>
<path style="fill:#3d5cfc; stroke:none;" d="M386 413L386 459L405 459L405 474L451 474L451 428L432 428L432 413L386 413z"/>
<path style="fill:#e0b179; stroke:none;" d="M432 413L432 428L433 428L432 413z"/>
<path style="fill:#955c39; stroke:none;" d="M478 413L479 414L478 413z"/>
<path style="fill:#3d5cfc; stroke:none;" d="M484 413L485 414L484 413z"/>
<path style="fill:#955c39; stroke:none;" d="M513 413L514 414L513 413z"/>
<path style="fill:#3d5cfc; stroke:none;" d="M567 413L568 414L567 413z"/>
<path style="fill:#955c39; stroke:none;" d="M568 413L568 414L571 414L568 413z"/>
<path style="fill:#e0b179; stroke:none;" d="M592 413L593 414L592 413z"/>
<path style="fill:#3d5cfc; stroke:none;" d="M596 413L597 414L596 413z"/>
<path style="fill:#e0b179; stroke:none;" d="M597 413L598 414L597 413M602 413L603 414L602 413z"/>
<path style="fill:#955c39; stroke:none;" d="M603 413L604 414L603 413M728 413L729 414L728 413M774.333 413.667L774.667 414.333L774.333 413.667z"/>
<path style="fill:#3d5cfc; stroke:none;" d="M779 413L780 414L779 413z"/>
<path style="fill:#955c39; stroke:none;" d="M817 413L818 414L817 413z"/>
<path style="fill:#e0b179; stroke:none;" d="M823 413L824 414L823 413z"/>
<path style="fill:#955c39; stroke:none;" d="M851 413L852 414L851 413z"/>
<path style="fill:#3d5cfc; stroke:none;" d="M862 413L863 414L862 413M903 413L904 414L903 413z"/>
<path style="fill:#955c39; stroke:none;" d="M904 413L904 414L907 414L904 413z"/>
<path style="fill:#e0b179; stroke:none;" d="M928 413L929 414L928 413z"/>
<path style="fill:#3d5cfc; stroke:none;" d="M932 413L933 414L932 413z"/>
<path style="fill:#e0b179; stroke:none;" d="M933 413L934 414L933 413M938 413L939 414L938 413z"/>
<path style="fill:#955c39; stroke:none;" d="M939 413L940 414L939 413M148 414L149 415L148 414z"/>
<path style="fill:#e0b179; stroke:none;" d="M149.667 414.333L150.333 414.667L149.667 414.333M155 414L156 415L155 414z"/>
<path style="fill:#955c39; stroke:none;" d="M156 414L157 415L156 414M225 414L226 415L225 414M262.333 414.667L262.667 415.333L262.333 414.667z"/>
<path style="fill:#e0b179; stroke:none;" d="M305 414L306 415L305 414z"/>
<path style="fill:#955c39; stroke:none;" d="M321 414L322 415L321 414z"/>
<path style="fill:#e0b179; stroke:none;" d="M328 414L329 415L328 414M343 414L344 415L343 414z"/>
<path style="fill:#955c39; stroke:none;" d="M344 414L345 415L344 414z"/>
<path style="fill:#3d5cfc; stroke:none;" d="M357.333 414.667L357.667 415.333L357.333 414.667z"/>
<path style="fill:#955c39; stroke:none;" d="M477 414L478 415L477 414z"/>
<path style="fill:#3d5cfc; stroke:none;" d="M483 414L484 415L483 414z"/>
<path style="fill:#955c39; stroke:none;" d="M514 414L515 415L514 414z"/>
<path style="fill:#e0b179; stroke:none;" d="M572 414L573 415L572 414z"/>
<path style="fill:#955c39; stroke:none;" d="M573 414L574 415L573 414z"/>
<path style="fill:#e0b179; stroke:none;" d="M591 414L592 415L591 414z"/>
<path style="fill:#3d5cfc; stroke:none;" d="M595 414L596 415L595 414z"/>
<path style="fill:#e0b179; stroke:none;" d="M604 414L605 415L604 414z"/>
<path style="fill:#955c39; stroke:none;" d="M605 414L606 415L605 414z"/>
<path style="fill:#e0b179; stroke:none;" d="M615 414L616 415L615 414z"/>
<path style="fill:#955c39; stroke:none;" d="M652 414L653 415L652 414z"/>
<path style="fill:#e0b179; stroke:none;" d="M653.667 414.333L654.333 414.667L653.667 414.333M659 414L660 415L659 414z"/>
<path style="fill:#955c39; stroke:none;" d="M660 414L661 415L660 414z"/>
<path style="fill:#e0b179; stroke:none;" d="M728.333 414.667L728.667 415.333L728.333 414.667M773.333 414.667L773.667 415.333L773.333 414.667M779 414L780 415L779 414M816 414L815 416L816 414z"/>
<path style="fill:#3d5cfc; stroke:none;" d="M822 414L823 415L822 414z"/>
<path style="fill:#955c39; stroke:none;" d="M852 414L853 415L852 414z"/>
<path style="fill:#e0b179; stroke:none;" d="M863 414L864 415L863 414M908 414L909 415L908 414z"/>
<path style="fill:#955c39; stroke:none;" d="M909 414L910 415L909 414z"/>
<path style="fill:#e0b179; stroke:none;" d="M927 414L928 415L927 414z"/>
<path style="fill:#3d5cfc; stroke:none;" d="M931 414L932 415L931 414z"/>
<path style="fill:#e0b179; stroke:none;" d="M940 414L941 415L940 414z"/>
<path style="fill:#955c39; stroke:none;" d="M941 414L942 415L941 414z"/>
<path style="fill:#e0b179; stroke:none;" d="M951 414L952 415L951 414M157 415L158 416L157 415M224 415L225 416L224 415M270 415L270 418L271 418L270 415z"/>
<path style="fill:#955c39; stroke:none;" d="M306 415L307 418L308 418L306 415M320 415L321 416L320 415z"/>
<path style="fill:#3d5cfc; stroke:none;" d="M326 415L327 416L326 415z"/>
<path style="fill:#955c39; stroke:none;" d="M345 415L346 416L345 415M476 415L477 416L476 415z"/>
<path style="fill:#3d5cfc; stroke:none;" d="M482 415L481 417L482 415z"/>
<path style="fill:#955c39; stroke:none;" d="M515 415L516 416L515 415M574 415L576 417L574 415M591 415L592 416L591 415z"/>
<path style="fill:#3d5cfc; stroke:none;" d="M594 415L593 417L594 415z"/>
<path style="fill:#e0b179; stroke:none;" d="M606 415L607 416L606 415z"/>
<path style="fill:#955c39; stroke:none;" d="M607 415L608 416L607 415z"/>
<path style="fill:#e0b179; stroke:none;" d="M614 415L615 416L614 415M661 415L662 416L661 415z"/>
<path style="fill:#955c39; stroke:none;" d="M729.333 415.667L729.667 416.333L729.333 415.667z"/>
<path style="fill:#3d5cfc; stroke:none;" d="M740 415L740 418L741 418L740 415M778.333 415.667L778.667 416.333L778.333 415.667z"/>
<path style="fill:#955c39; stroke:none;" d="M816 415L817 416L816 415z"/>
<path style="fill:#3d5cfc; stroke:none;" d="M821 415L822 416L821 415z"/>
<path style="fill:#e0b179; stroke:none;" d="M852 415L853 416L852 415z"/>
<path style="fill:#3d5cfc; stroke:none;" d="M863 415L864 416L863 415z"/>
<path style="fill:#955c39; stroke:none;" d="M910 415L912 417L910 415M927 415L928 416L927 415z"/>
<path style="fill:#3d5cfc; stroke:none;" d="M930 415L929 417L930 415z"/>
<path style="fill:#e0b179; stroke:none;" d="M942 415L943 416L942 415z"/>
<path style="fill:#955c39; stroke:none;" d="M943 415L944 416L943 415z"/>
<path style="fill:#e0b179; stroke:none;" d="M950 415L951 416L950 415M158 416L160 418L158 416z"/>
<path style="fill:#955c39; stroke:none;" d="M159 416L160 417L159 416M224 416L225 426L226 426L224 416z"/>
<path style="fill:#e0b179; stroke:none;" d="M262 416L262 431L263 431L262 416M306 416L307 417L306 416z"/>
<path style="fill:#955c39; stroke:none;" d="M319 416L320 417L319 416z"/>
<path style="fill:#e0b179; stroke:none;" d="M325 416L326 417L325 416z"/>
<path style="fill:#955c39; stroke:none;" d="M346 416L347 417L346 416z"/>
<path style="fill:#e0b179; stroke:none;" d="M358.333 416.667L358.667 417.333L358.333 416.667M475 416L476 417L475 416M482 416L483 417L482 416M515 416L516 417L515 416M574 416L575 417L574 416z"/>
<path style="fill:#955c39; stroke:none;" d="M590 416L591 417L590 416z"/>
<path style="fill:#e0b179; stroke:none;" d="M594 416L595 417L594 416M609 416L609 417L613 417L609 416M662 416L664 418L662 416z"/>
<path style="fill:#955c39; stroke:none;" d="M663 416L664 417L663 416M773.333 416.667L773.667 417.333L773.333 416.667M815 416L816 417L815 416z"/>
<path style="fill:#e0b179; stroke:none;" d="M821 416L822 417L821 416z"/>
<path style="fill:#955c39; stroke:none;" d="M853 416L854 417L853 416z"/>
<path style="fill:#e0b179; stroke:none;" d="M864 416L865 417L864 416M910 416L911 417L910 416z"/>
<path style="fill:#955c39; stroke:none;" d="M926 416L927 417L926 416z"/>
<path style="fill:#e0b179; stroke:none;" d="M930 416L931 417L930 416M945 416L945 417L949 417L945 416z"/>
<path style="fill:#3d5cfc; stroke:none;" d="M234 417L234 424L235 424L234 417z"/>
<path style="fill:#955c39; stroke:none;" d="M318 417L319 418L318 417z"/>
<path style="fill:#e0b179; stroke:none;" d="M324 417L325 418L324 417z"/>
<path style="fill:#955c39; stroke:none;" d="M347 417L348 418L347 417M475 417L476 418L475 417z"/>
<path style="fill:#e0b179; stroke:none;" d="M481 417L482 418L481 417z"/>
<path style="fill:#955c39; stroke:none;" d="M516 417L517 418L516 417z"/>
<path style="fill:#e0b179; stroke:none;" d="M575 417L576 418L575 417M589 417L588 419L589 417M593 417L594 418L593 417M729 417L730 418L729 417M778 417L779 418L778 417M814 417L815 418L814 417z"/>
<path style="fill:#3d5cfc; stroke:none;" d="M820 417L821 418L820 417z"/>
<path style="fill:#e0b179; stroke:none;" d="M853 417L854 418L853 417z"/>
<path style="fill:#3d5cfc; stroke:none;" d="M864.333 417.667L864.667 418.333L864.333 417.667z"/>
<path style="fill:#e0b179; stroke:none;" d="M911 417L912 418L911 417M925 417L924 419L925 417M929 417L930 418L929 417z"/>
<path style="fill:#955c39; stroke:none;" d="M160.333 418.667L160.667 419.333L160.333 418.667z"/>
<path style="fill:#3d5cfc; stroke:none;" d="M270 418L270 467L271 467C271 453.212 275.309 430.652 270 418z"/>
<path style="fill:#e0b179; stroke:none;" d="M307.333 418.667L307.667 419.333L307.333 418.667z"/>
<path style="fill:#955c39; stroke:none;" d="M317 418L318 419L317 418z"/>
<path style="fill:#3d5cfc; stroke:none;" d="M322 418L323 419L322 418z"/>
<path style="fill:#e0b179; stroke:none;" d="M323 418L324 419L323 418M347 418L348 419L347 418z"/>
<path style="fill:#3d5cfc; stroke:none;" d="M358 418L358 424L359 424L358 418z"/>
<path style="fill:#955c39; stroke:none;" d="M474 418L475 419L474 418z"/>
<path style="fill:#3d5cfc; stroke:none;" d="M480 418L481 419L480 418z"/>
<path style="fill:#e0b179; stroke:none;" d="M516 418L517 419L516 418z"/>
<path style="fill:#955c39; stroke:none;" d="M576.333 418.667L576.667 419.333L576.333 418.667M589 418L590 419L589 418z"/>
<path style="fill:#e0b179; stroke:none;" d="M592 418L593 419L592 418z"/>
<path style="fill:#955c39; stroke:none;" d="M664.333 418.667L664.667 419.333L664.333 418.667M730 418L731 419L730 418z"/>
<path style="fill:#e0b179; stroke:none;" d="M741 418L742 419L741 418M772 418L773 419L772 418z"/>
<path style="fill:#3d5cfc; stroke:none;" d="M777.333 418.667L777.667 419.333L777.333 418.667z"/>
<path style="fill:#955c39; stroke:none;" d="M814 418L815 419L814 418z"/>
<path style="fill:#e0b179; stroke:none;" d="M820 418L821 419L820 418z"/>
<path style="fill:#955c39; stroke:none;" d="M854 418L855 419L854 418z"/>
<path style="fill:#e0b179; stroke:none;" d="M865.333 418.667L865.667 419.333L865.333 418.667z"/>
<path style="fill:#955c39; stroke:none;" d="M912.333 418.667L912.667 419.333L912.333 418.667M925 418L926 419L925 418z"/>
<path style="fill:#e0b179; stroke:none;" d="M928 418L929 419L928 418M223 419L223 422L224 422L223 419z"/>
<path style="fill:#955c39; stroke:none;" d="M263 419L263 431L264 431L263 419M308 419L308 473L309 473L309 437L308 419z"/>
<path style="fill:#3d5cfc; stroke:none;" d="M321 419L322 420L321 419z"/>
<path style="fill:#955c39; stroke:none;" d="M348 419L349 420L348 419z"/>
<path style="fill:#e0b179; stroke:none;" d="M473 419L474 420L473 419M480 419L481 420L480 419z"/>
<path style="fill:#955c39; stroke:none;" d="M517 419L518 420L517 419M588 419L589 420L588 419z"/>
<path style="fill:#3d5cfc; stroke:none;" d="M591 419L590 421L591 419z"/>
<path style="fill:#e0b179; stroke:none;" d="M730 419L731 420L730 419z"/>
<path style="fill:#3d5cfc; stroke:none;" d="M741.333 419.667L741.667 420.333L741.333 419.667z"/>
<path style="fill:#955c39; stroke:none;" d="M772 419L772 422L773 422L772 419z"/>
<path style="fill:#e0b179; stroke:none;" d="M813 419L814 420L813 419z"/>
<path style="fill:#3d5cfc; stroke:none;" d="M819 419L820 420L819 419z"/>
<path style="fill:#e0b179; stroke:none;" d="M854.333 419.667L854.667 420.333L854.333 419.667z"/>
<path style="fill:#955c39; stroke:none;" d="M924 419L925 420L924 419z"/>
<path style="fill:#3d5cfc; stroke:none;" d="M927 419L926 421L927 419z"/>
<path style="fill:#e0b179; stroke:none;" d="M160 420L161 421L160 420z"/>
<path style="fill:#3d5cfc; stroke:none;" d="M320 420L318 423L320 420z"/>
<path style="fill:#e0b179; stroke:none;" d="M348 420L349 421L348 420z"/>
<path style="fill:#955c39; stroke:none;" d="M473 420L474 421L473 420z"/>
<path style="fill:#3d5cfc; stroke:none;" d="M479 420L480 421L479 420z"/>
<path style="fill:#e0b179; stroke:none;" d="M517.333 420.667L517.667 421.333L517.333 420.667M576 420L576 423L577 423L576 420M591 420L592 421L591 420M664 420L665 421L664 420z"/>
<path style="fill:#955c39; stroke:none;" d="M731.333 420.667L731.667 421.333L731.333 420.667z"/>
<path style="fill:#e0b179; stroke:none;" d="M742.333 420.667L742.667 421.333L742.333 420.667M777 420L778 421L777 420z"/>
<path style="fill:#955c39; stroke:none;" d="M813 420L814 421L813 420z"/>
<path style="fill:#e0b179; stroke:none;" d="M819 420L820 421L819 420z"/>
<path style="fill:#955c39; stroke:none;" d="M855.333 420.667L855.667 421.333L855.333 420.667z"/>
<path style="fill:#3d5cfc; stroke:none;" d="M865.333 420.667L865.667 421.333L865.333 420.667z"/>
<path style="fill:#e0b179; stroke:none;" d="M912 420L912 423L913 423L912 420M927 420L928 421L927 420z"/>
<path style="fill:#955c39; stroke:none;" d="M161 421L161 472L162 472C162 457.689 166.508 434.127 161 421z"/>
<path style="fill:#e0b179; stroke:none;" d="M320 421L321 422L320 421z"/>
<path style="fill:#955c39; stroke:none;" d="M349.333 421.667L349.667 422.333L349.333 421.667z"/>
<path style="fill:#e0b179; stroke:none;" d="M394 421L394 451L395 451L394 421z"/>
<path style="fill:#ffffff; stroke:none;" d="M395 421L395 451L405 451L405 428L424 428L424 421L395 421z"/>
<path style="fill:#e0b179; stroke:none;" d="M472 421L473 422L472 421M479 421L480 422L479 421z"/>
<path style="fill:#955c39; stroke:none;" d="M518 421L518 424L519 424L518 421M586 421L587 422L586 421z"/>
<path style="fill:#e0b179; stroke:none;" d="M590 421L591 422L590 421z"/>
<path style="fill:#955c39; stroke:none;" d="M665 421L665 472L666 472C666 457.689 670.508 434.127 665 421z"/>
<path style="fill:#e0b179; stroke:none;" d="M771.333 421.667L771.667 422.333L771.333 421.667z"/>
<path style="fill:#3d5cfc; stroke:none;" d="M776.333 421.667L776.667 422.333L776.333 421.667z"/>
<path style="fill:#e0b179; stroke:none;" d="M812 421L813 422L812 421z"/>
<path style="fill:#3d5cfc; stroke:none;" d="M818 421L819 422L818 421z"/>
<path style="fill:#e0b179; stroke:none;" d="M866.333 421.667L866.667 422.333L866.333 421.667z"/>
<path style="fill:#955c39; stroke:none;" d="M922 421L923 422L922 421z"/>
<path style="fill:#e0b179; stroke:none;" d="M926 421L927 422L926 421M319 422L320 423L319 422M359 422L359 472L360 472C360 457.951 364.409 434.89 359 422z"/>
<path style="fill:#955c39; stroke:none;" d="M472 422L473 423L472 422z"/>
<path style="fill:#3d5cfc; stroke:none;" d="M478.333 422.667L478.667 423.333L478.333 422.667z"/>
<path style="fill:#955c39; stroke:none;" d="M577 422L577 472L578 472C578 457.951 582.409 434.889 577 422z"/>
<path style="fill:#3d5cfc; stroke:none;" d="M589 422L587 427L588 427L589 422z"/>
<path style="fill:#e0b179; stroke:none;" d="M731 422L732 423L731 422z"/>
<path style="fill:#3d5cfc; stroke:none;" d="M742.333 422.667L742.667 423.333L742.333 422.667z"/>
<path style="fill:#955c39; stroke:none;" d="M812 422L813 423L812 422z"/>
<path style="fill:#e0b179; stroke:none;" d="M818.333 422.667L818.667 423.333L818.333 422.667M855 422L855 425L856 425L855 422z"/>
<path style="fill:#955c39; stroke:none;" d="M913 422L913 472L914 472C914 457.951 918.409 434.889 913 422z"/>
<path style="fill:#3d5cfc; stroke:none;" d="M925 422L923 427L924 427L925 422z"/>
<path style="fill:#e0b179; stroke:none;" d="M318 423L319 424L318 423M349.333 423.667L349.667 424.333L349.333 423.667M471 423L472 424L471 423M589 423L590 424L589 423z"/>
<path style="fill:#955c39; stroke:none;" d="M732 423L733 424L732 423z"/>
<path style="fill:#e0b179; stroke:none;" d="M743.333 423.667L743.667 424.333L743.333 423.667z"/>
<path style="fill:#955c39; stroke:none;" d="M771.333 423.667L771.667 424.333L771.333 423.667z"/>
<path style="fill:#e0b179; stroke:none;" d="M776 423L777 424L776 423M811 423L812 424L811 423z"/>
<path style="fill:#3d5cfc; stroke:none;" d="M817.333 423.667L817.667 424.333L817.333 423.667M866 423L866 426L867 426L866 423z"/>
<path style="fill:#e0b179; stroke:none;" d="M925 423L926 424L925 423M234 424L235 425L234 424z"/>
<path style="fill:#3d5cfc; stroke:none;" d="M317 424L317 475L318 475C318 460.689 322.508 437.127 317 424z"/>
<path style="fill:#955c39; stroke:none;" d="M350 424L350 473L351 473C351 459.212 355.309 436.652 350 424M471 424L472 425L471 424z"/>
<path style="fill:#e0b179; stroke:none;" d="M478 424L479 425L478 424M518 424L518 464L519 464C519 452.566 522.411 434.512 518 424M732 424L733 425L732 424z"/>
<path style="fill:#3d5cfc; stroke:none;" d="M775.333 424.667L775.667 425.333L775.333 424.667z"/>
<path style="fill:#955c39; stroke:none;" d="M811.333 424.667L811.667 425.333L811.333 424.667M856 424L856 428L857 428L856 424z"/>
<path style="fill:#e0b179; stroke:none;" d="M224 425L225 426L224 425z"/>
<path style="fill:#3d5cfc; stroke:none;" d="M233 425L232 427L233 425z"/>
<path style="fill:#e0b179; stroke:none;" d="M470 425L471 426L470 425z"/>
<path style="fill:#3d5cfc; stroke:none;" d="M477.333 425.667L477.667 426.333L477.333 425.667z"/>
<path style="fill:#e0b179; stroke:none;" d="M588 425L589 426L588 425z"/>
<path style="fill:#955c39; stroke:none;" d="M733.333 425.667L733.667 426.333L733.333 425.667z"/>
<path style="fill:#3d5cfc; stroke:none;" d="M743 425L744 426L743 425z"/>
<path style="fill:#e0b179; stroke:none;" d="M770 425L771 426L770 425M817 425L818 426L817 425M867 425L867 428L868 428L867 425M924 425L925 426L924 425M225 426L226 427L225 426M233 426L234 427L233 426M271 426L271 470L272 470C272 457.52 275.81 437.463 271 426z"/>
<path style="fill:#955c39; stroke:none;" d="M470.333 426.667L470.667 427.333L470.333 426.667z"/>
<path style="fill:#e0b179; stroke:none;" d="M744 426L745 427L744 426z"/>
<path style="fill:#955c39; stroke:none;" d="M770.333 426.667L770.667 427.333L770.333 426.667z"/>
<path style="fill:#e0b179; stroke:none;" d="M775 426L776 427L775 426M810 426L811 427L810 426z"/>
<path style="fill:#3d5cfc; stroke:none;" d="M816.333 426.667L816.667 427.333L816.333 426.667z"/>
<path style="fill:#955c39; stroke:none;" d="M227.667 427.333L228.333 427.667L227.667 427.333z"/>
<path style="fill:#3d5cfc; stroke:none;" d="M230.667 427.333L231.333 427.667L230.667 427.333z"/>
<path style="fill:#e0b179; stroke:none;" d="M469.333 427.667L469.667 428.333L469.333 427.667M477.333 427.667L477.667 428.333L477.333 427.667M587 427L588 428L587 427M733 427L734 428L733 427z"/>
<path style="fill:#3d5cfc; stroke:none;" d="M744.333 427.667L744.667 428.333L744.333 427.667M774.333 427.667L774.667 428.333L774.333 427.667z"/>
<path style="fill:#955c39; stroke:none;" d="M810.333 427.667L810.667 428.333L810.333 427.667z"/>
<path style="fill:#e0b179; stroke:none;" d="M817 427L818 428L817 427M923 427L924 428L923 427M451 428L451 474L452 474C452 460.996 456.01 439.939 451 428z"/>
<path style="fill:#3d5cfc; stroke:none;" d="M586.333 428.667L586.667 429.333L586.333 428.667z"/>
<path style="fill:#955c39; stroke:none;" d="M734 428L735 429L734 428z"/>
<path style="fill:#e0b179; stroke:none;" d="M769.333 428.667L769.667 429.333L769.333 428.667z"/>
<path style="fill:#3d5cfc; stroke:none;" d="M867 428L867 432L868 432L867 428M922.333 428.667L922.667 429.333L922.333 428.667z"/>
<path style="fill:#955c39; stroke:none;" d="M469.333 429.667L469.667 430.333L469.333 429.667z"/>
<path style="fill:#3d5cfc; stroke:none;" d="M476 429L476 433L477 433L476 429z"/>
<path style="fill:#e0b179; stroke:none;" d="M734 429L735 430L734 429M745 429L746 430L745 429M774.333 429.667L774.667 430.333L774.333 429.667M809.333 429.667L809.667 430.333L809.333 429.667M468.333 430.667L468.667 431.333L468.333 430.667M586 430L586 471L587 471C587 459.304 590.511 440.75 586 430z"/>
<path style="fill:#955c39; stroke:none;" d="M735.333 430.667L735.667 431.333L735.333 430.667z"/>
<path style="fill:#3d5cfc; stroke:none;" d="M745.333 430.667L745.667 431.333L745.333 430.667z"/>
<path style="fill:#955c39; stroke:none;" d="M769.333 430.667L769.667 431.333L769.333 430.667z"/>
<path style="fill:#3d5cfc; stroke:none;" d="M773.333 430.667L773.667 431.333L773.333 430.667z"/>
<path style="fill:#e0b179; stroke:none;" d="M922 430L922 471L923 471C923 459.304 926.511 440.75 922 430z"/>
<path style="fill:#955c39; stroke:none;" d="M261 431L262 432L261 431z"/>
<path style="fill:#e0b179; stroke:none;" d="M746.333 431.667L746.667 432.333L746.333 431.667M768.333 431.667L768.667 432.333L768.333 431.667z"/>
<path style="fill:#955c39; stroke:none;" d="M809 431L809 434L810 434L809 431z"/>
<path style="fill:#e0b179; stroke:none;" d="M258 432L259 433L258 432z"/>
<path style="fill:#955c39; stroke:none;" d="M259 432L260 433L259 432M468 432L468 435L469 435L468 432z"/>
<path style="fill:#e0b179; stroke:none;" d="M735 432L736 433L735 432M773.333 432.667L773.667 433.333L773.333 432.667M816.333 432.667L816.667 433.333L816.333 432.667M256 433L257 434L256 433M476 433L476 448L477 448L476 433z"/>
<path style="fill:#955c39; stroke:none;" d="M736 433L737 434L736 433z"/>
<path style="fill:#3d5cfc; stroke:none;" d="M746.333 433.667L746.667 434.333L746.333 433.667z"/>
<path style="fill:#955c39; stroke:none;" d="M768.333 433.667L768.667 434.333L768.333 433.667z"/>
<path style="fill:#3d5cfc; stroke:none;" d="M772.333 433.667L772.667 434.333L772.333 433.667z"/>
<path style="fill:#e0b179; stroke:none;" d="M808 433L808 437L809 437L808 433M254 434L255 435L254 434M467 434L467 437L468 437L467 434M736.333 434.667L736.667 435.333L736.333 434.667M747.333 434.667L747.667 435.333L747.333 434.667M767.333 434.667L767.667 435.333L767.333 434.667z"/>
<path style="fill:#3d5cfc; stroke:none;" d="M816 434L816 445L817 445L816 434z"/>
<path style="fill:#955c39; stroke:none;" d="M252 435L253 436L252 435M737.333 435.667L737.667 436.333L737.333 435.667z"/>
<path style="fill:#e0b179; stroke:none;" d="M772.333 435.667L772.667 436.333L772.333 435.667M249 436L250 437L249 436z"/>
<path style="fill:#955c39; stroke:none;" d="M250 436L251 437L250 436z"/>
<path style="fill:#3d5cfc; stroke:none;" d="M260 436L261 437L260 436z"/>
<path style="fill:#e0b179; stroke:none;" d="M261 436L262 464L263 464C263 457.53 265.975 440.347 261 436z"/>
<path style="fill:#955c39; stroke:none;" d="M263 436L263 462L264 462L263 436z"/>
<path style="fill:#060608; stroke:none;" d="M413 436L413 451L424 451L424 436L413 436z"/>
<path style="fill:#e0b179; stroke:none;" d="M432 436L432 459L433 459L432 436z"/>
<path style="fill:#ffffff; stroke:none;" d="M433 436L433 459L414 459L414 466L443 466L443 436L433 436z"/>
<path style="fill:#3d5cfc; stroke:none;" d="M475 436L475 444L476 444L475 436M747 436L748 437L747 436z"/>
<path style="fill:#955c39; stroke:none;" d="M767.333 436.667L767.667 437.333L767.333 436.667z"/>
<path style="fill:#3d5cfc; stroke:none;" d="M771.333 436.667L771.667 437.333L771.333 436.667z"/>
<path style="fill:#e0b179; stroke:none;" d="M247 437L248 438L247 437z"/>
<path style="fill:#955c39; stroke:none;" d="M248 437L249 438L248 437z"/>
<path style="fill:#3d5cfc; stroke:none;" d="M258 437L259 438L258 437z"/>
<path style="fill:#ffffff; stroke:none;" d="M262 437C256.664 437.951 251.721 440.695 247 443.312C243.308 445.359 239.968 447.896 237.108 451.015C217.553 472.338 257.356 488.219 261.772 464C263.323 455.491 262 445.647 262 437z"/>
<path style="fill:#955c39; stroke:none;" d="M467 437L467 444L468 444L467 437z"/>
<path style="fill:#e0b179; stroke:none;" d="M737 437L738 438L737 437M748 437L749 438L748 437z"/>
<path style="fill:#955c39; stroke:none;" d="M808 437L808 455L809 455L808 437z"/>
<path style="fill:#e0b179; stroke:none;" d="M245 438L246 439L245 438z"/>
<path style="fill:#955c39; stroke:none;" d="M246 438L247 439L246 438z"/>
<path style="fill:#e0b179; stroke:none;" d="M256 438L257 439L256 438z"/>
<path style="fill:#955c39; stroke:none;" d="M738 438L739 439L738 438z"/>
<path style="fill:#3d5cfc; stroke:none;" d="M748.333 438.667L748.667 439.333L748.333 438.667z"/>
<path style="fill:#e0b179; stroke:none;" d="M766 438L767 439L766 438M771.333 438.667L771.667 439.333L771.333 438.667M243 439L244 440L243 439z"/>
<path style="fill:#955c39; stroke:none;" d="M244 439L245 440L244 439z"/>
<path style="fill:#3d5cfc; stroke:none;" d="M253 439L254 440L253 439z"/>
<path style="fill:#e0b179; stroke:none;" d="M254 439L255 440L254 439M738.333 439.667L738.667 440.333L738.333 439.667z"/>
<path style="fill:#955c39; stroke:none;" d="M766 439L766 442L767 442L766 439z"/>
<path style="fill:#3d5cfc; stroke:none;" d="M770.333 439.667L770.667 440.333L770.333 439.667z"/>
<path style="fill:#955c39; stroke:none;" d="M242 440L243 441L242 440z"/>
<path style="fill:#3d5cfc; stroke:none;" d="M251 440L252 441L251 440z"/>
<path style="fill:#e0b179; stroke:none;" d="M252 440L253 441L252 440z"/>
<path style="fill:#955c39; stroke:none;" d="M739.333 440.667L739.667 441.333L739.333 440.667z"/>
<path style="fill:#e0b179; stroke:none;" d="M749 440L750 441L749 440M240 441L241 442L240 441z"/>
<path style="fill:#3d5cfc; stroke:none;" d="M249 441L250 442L249 441z"/>
<path style="fill:#e0b179; stroke:none;" d="M250 441L251 442L250 441M466 441L466 452L467 452L466 441z"/>
<path style="fill:#3d5cfc; stroke:none;" d="M749.333 441.667L749.667 442.333L749.333 441.667z"/>
<path style="fill:#e0b179; stroke:none;" d="M765.333 441.667L765.667 442.333L765.333 441.667M770.333 441.667L770.667 442.333L770.333 441.667M238 442L239 443L238 442z"/>
<path style="fill:#3d5cfc; stroke:none;" d="M247 442L248 443L247 442z"/>
<path style="fill:#e0b179; stroke:none;" d="M248 442L249 443L248 442M739 442L740 443L739 442M750.333 442.667L750.667 443.333L750.333 442.667z"/>
<path style="fill:#3d5cfc; stroke:none;" d="M769.333 442.667L769.667 443.333L769.333 442.667z"/>
<path style="fill:#e0b179; stroke:none;" d="M236 443L237 444L236 443z"/>
<path style="fill:#955c39; stroke:none;" d="M237 443L238 444L237 443z"/>
<path style="fill:#3d5cfc; stroke:none;" d="M246 443L247 444L246 443z"/>
<path style="fill:#955c39; stroke:none;" d="M740 443L741 447L742 447L740 443M765.333 443.667L765.667 444.333L765.333 443.667M235 444L236 445L235 444z"/>
<path style="fill:#3d5cfc; stroke:none;" d="M244 444L245 445L244 444M750 444L751 448L752 448L750 444z"/>
<path style="fill:#e0b179; stroke:none;" d="M764.333 444.667L764.667 445.333L764.333 444.667M769.333 444.667L769.667 445.333L769.333 444.667M817 444L817 448L818 448L817 444M233 445L234 446L233 445z"/>
<path style="fill:#955c39; stroke:none;" d="M234 445L235 446L234 445z"/>
<path style="fill:#e0b179; stroke:none;" d="M243 445L244 446L243 445M740 445L741 446L740 445M751 445L752 446L751 445z"/>
<path style="fill:#3d5cfc; stroke:none;" d="M768 445L768 448L769 448L768 445z"/>
<path style="fill:#955c39; stroke:none;" d="M232 446L233 447L232 446z"/>
<path style="fill:#3d5cfc; stroke:none;" d="M241 446L242 447L241 446z"/>
<path style="fill:#955c39; stroke:none;" d="M764.333 446.667L764.667 447.333L764.333 446.667M231 447L232 448L231 447z"/>
<path style="fill:#3d5cfc; stroke:none;" d="M240 447L241 448L240 447z"/>
<path style="fill:#e0b179; stroke:none;" d="M741.333 447.667L741.667 448.333L741.333 447.667M763.333 447.667L763.667 448.333L763.333 447.667z"/>
<path style="fill:#955c39; stroke:none;" d="M230 448L231 449L230 448z"/>
<path style="fill:#e0b179; stroke:none;" d="M239 448L240 449L239 448z"/>
<path style="fill:#3d5cfc; stroke:none;" d="M476 448L476 453L477 453L476 448z"/>
<path style="fill:#955c39; stroke:none;" d="M742.333 448.667L742.667 449.333L742.333 448.667z"/>
<path style="fill:#e0b179; stroke:none;" d="M752 448L753 449L752 448M768 448L769 449L768 448z"/>
<path style="fill:#3d5cfc; stroke:none;" d="M817 448L817 452L818 452L817 448z"/>
<path style="fill:#e0b179; stroke:none;" d="M228 449L229 450L228 449z"/>
<path style="fill:#955c39; stroke:none;" d="M229 449L230 450L229 449z"/>
<path style="fill:#e0b179; stroke:none;" d="M238 449L239 450L238 449z"/>
<path style="fill:#955c39; stroke:none;" d="M467 449L467 457L468 457L467 449z"/>
<path style="fill:#3d5cfc; stroke:none;" d="M752.333 449.667L752.667 450.333L752.333 449.667z"/>
<path style="fill:#955c39; stroke:none;" d="M763.333 449.667L763.667 450.333L763.333 449.667z"/>
<path style="fill:#3d5cfc; stroke:none;" d="M767.333 449.667L767.667 450.333L767.333 449.667z"/>
<path style="fill:#955c39; stroke:none;" d="M228 450L229 451L228 450z"/>
<path style="fill:#3d5cfc; stroke:none;" d="M236 450L237 451L236 450z"/>
<path style="fill:#e0b179; stroke:none;" d="M237 450L238 451L237 450M742 450L743 451L742 450z"/>
<path style="fill:#955c39; stroke:none;" d="M227 451L228 452L227 451z"/>
<path style="fill:#e0b179; stroke:none;" d="M236 451L237 452L236 451z"/>
<path style="fill:#955c39; stroke:none;" d="M743 451L744 452L743 451z"/>
<path style="fill:#e0b179; stroke:none;" d="M753 451L754 452L753 451M762 451L763 452L762 451M767 451L768 452L767 451M818 451L818 454L819 454L818 451z"/>
<path style="fill:#955c39; stroke:none;" d="M226 452L227 453L226 452z"/>
<path style="fill:#e0b179; stroke:none;" d="M235 452L236 453L235 452M477.333 452.667L477.667 453.333L477.333 452.667M743.333 452.667L743.667 453.333L743.333 452.667z"/>
<path style="fill:#3d5cfc; stroke:none;" d="M753.333 452.667L753.667 453.333L753.333 452.667z"/>
<path style="fill:#955c39; stroke:none;" d="M762.333 452.667L762.667 453.333L762.333 452.667z"/>
<path style="fill:#3d5cfc; stroke:none;" d="M766.333 452.667L766.667 453.333L766.333 452.667z"/>
<path style="fill:#e0b179; stroke:none;" d="M225 453L224 455L225 453z"/>
<path style="fill:#3d5cfc; stroke:none;" d="M234 453L235 454L234 453z"/>
<path style="fill:#955c39; stroke:none;" d="M744.333 453.667L744.667 454.333L744.333 453.667z"/>
<path style="fill:#e0b179; stroke:none;" d="M754.333 453.667L754.667 454.333L754.333 453.667z"/>
<path style="fill:#955c39; stroke:none;" d="M225 454L226 455L225 454z"/>
<path style="fill:#3d5cfc; stroke:none;" d="M233 454L234 455L233 454M477 454L477 457L478 457L477 454z"/>
<path style="fill:#e0b179; stroke:none;" d="M761 454L762 455L761 454M766 454L767 455L766 454z"/>
<path style="fill:#3d5cfc; stroke:none;" d="M818.333 454.667L818.667 455.333L818.333 454.667z"/>
<path style="fill:#955c39; stroke:none;" d="M224 455L225 456L224 455z"/>
<path style="fill:#e0b179; stroke:none;" d="M233 455L234 456L233 455M744 455L745 456L744 455z"/>
<path style="fill:#3d5cfc; stroke:none;" d="M754 455L755 459L756 459L754 455z"/>
<path style="fill:#955c39; stroke:none;" d="M761.333 455.667L761.667 456.333L761.333 455.667z"/>
<path style="fill:#3d5cfc; stroke:none;" d="M765.333 455.667L765.667 456.333L765.333 455.667z"/>
<path style="fill:#e0b179; stroke:none;" d="M808 455L808 458L809 458L808 455M223 456L224 457L223 456z"/>
<path style="fill:#3d5cfc; stroke:none;" d="M232 456L233 457L232 456z"/>
<path style="fill:#e0b179; stroke:none;" d="M478.333 456.667L478.667 457.333L478.333 456.667z"/>
<path style="fill:#955c39; stroke:none;" d="M745.333 456.667L745.667 457.333L745.333 456.667z"/>
<path style="fill:#e0b179; stroke:none;" d="M755 456L756 457L755 456M819.333 456.667L819.667 457.333L819.333 456.667M868.667 456.333L869.333 456.667L868.667 456.333z"/>
<path style="fill:#955c39; stroke:none;" d="M223 457L224 458L223 457z"/>
<path style="fill:#e0b179; stroke:none;" d="M232.333 457.667L232.667 458.333L232.333 457.667M467 457L467 460L468 460L467 457M760 457L761 458L760 457M765 457L766 458L765 457z"/>
<path style="fill:#955c39; stroke:none;" d="M809 457L809 461L810 461L809 457M868 457L869 458L868 457z"/>
<path style="fill:#3d5cfc; stroke:none;" d="M870 457L871 458L870 457z"/>
<path style="fill:#e0b179; stroke:none;" d="M222 458L223 459L222 458z"/>
<path style="fill:#3d5cfc; stroke:none;" d="M231 458L231 467L232 467L231 458M478.333 458.667L478.667 459.333L478.333 458.667z"/>
<path style="fill:#e0b179; stroke:none;" d="M745 458L746 459L745 458z"/>
<path style="fill:#955c39; stroke:none;" d="M760.333 458.667L760.667 459.333L760.333 458.667z"/>
<path style="fill:#3d5cfc; stroke:none;" d="M764.333 458.667L764.667 459.333L764.333 458.667M819.333 458.667L819.667 459.333L819.333 458.667z"/>
<path style="fill:#e0b179; stroke:none;" d="M867 458L866 460L867 458M870.333 458.667L870.667 459.333L870.333 458.667z"/>
<path style="fill:#955c39; stroke:none;" d="M222.333 459.667L222.667 460.333L222.333 459.667z"/>
<path style="fill:#e0b179; stroke:none;" d="M413 459L413 466L414 466L413 459z"/>
<path style="fill:#955c39; stroke:none;" d="M468 459L468 462L469 462L468 459M746 459L747 460L746 459z"/>
<path style="fill:#e0b179; stroke:none;" d="M756 459L757 460L756 459M820.333 459.667L820.667 460.333L820.333 459.667z"/>
<path style="fill:#955c39; stroke:none;" d="M867 459L868 460L867 459z"/>
<path style="fill:#3d5cfc; stroke:none;" d="M869.333 459.667L869.667 460.333L869.333 459.667z"/>
<path style="fill:#e0b179; stroke:none;" d="M479 460L480 461L479 460M746.333 460.667L746.667 461.333L746.333 460.667z"/>
<path style="fill:#3d5cfc; stroke:none;" d="M756.333 460.667L756.667 461.333L756.333 460.667z"/>
<path style="fill:#e0b179; stroke:none;" d="M759 460L760 461L759 460M764 460L765 461L764 460z"/>
<path style="fill:#955c39; stroke:none;" d="M866 460L867 461L866 460z"/>
<path style="fill:#e0b179; stroke:none;" d="M221.333 461.667L221.667 462.333L221.333 461.667z"/>
<path style="fill:#3d5cfc; stroke:none;" d="M479 461L481 466L482 466L479 461z"/>
<path style="fill:#955c39; stroke:none;" d="M747.333 461.667L747.667 462.333L747.333 461.667M759 461L758 465L759 465L759 461z"/>
<path style="fill:#3d5cfc; stroke:none;" d="M763.333 461.667L763.667 462.333L763.333 461.667z"/>
<path style="fill:#e0b179; stroke:none;" d="M809.333 461.667L809.667 462.333L809.333 461.667z"/>
<path style="fill:#3d5cfc; stroke:none;" d="M820 461L821 462L820 461z"/>
<path style="fill:#e0b179; stroke:none;" d="M865 461L866 462L865 461M869 461L870 462L869 461M468.333 462.667L468.667 463.333L468.333 462.667M480 462L481 463L480 462M757 462L759 464L757 462z"/>
<path style="fill:#955c39; stroke:none;" d="M810.333 462.667L810.667 463.333L810.333 462.667z"/>
<path style="fill:#e0b179; stroke:none;" d="M821 462L822 463L821 462z"/>
<path style="fill:#955c39; stroke:none;" d="M865 462L866 463L865 462z"/>
<path style="fill:#3d5cfc; stroke:none;" d="M868 462L869 463L868 462z"/>
<path style="fill:#955c39; stroke:none;" d="M221 463L221 473L222 473L221 463M469.333 463.667L469.667 464.333L469.333 463.667z"/>
<path style="fill:#e0b179; stroke:none;" d="M747 463L748 464L747 463z"/>
<path style="fill:#3d5cfc; stroke:none;" d="M757.333 463.667L757.667 464.333L757.333 463.667z"/>
<path style="fill:#e0b179; stroke:none;" d="M763.333 463.667L763.667 464.333L763.333 463.667z"/>
<path style="fill:#3d5cfc; stroke:none;" d="M821 463L822 464L821 463z"/>
<path style="fill:#955c39; stroke:none;" d="M864 463L865 464L864 463z"/>
<path style="fill:#e0b179; stroke:none;" d="M868 463L869 464L868 463z"/>
<path style="fill:#955c39; stroke:none;" d="M262.333 464.667L262.667 465.333L262.333 464.667z"/>
<path style="fill:#e0b179; stroke:none;" d="M481 464L482 465L481 464z"/>
<path style="fill:#955c39; stroke:none;" d="M518 464L516 469L517 469L518 464M748 464L749 468L750 468L748 464z"/>
<path style="fill:#3d5cfc; stroke:none;" d="M762.333 464.667L762.667 465.333L762.333 464.667z"/>
<path style="fill:#e0b179; stroke:none;" d="M810.333 464.667L810.667 465.333L810.333 464.667M822 464L823 465L822 464M863 464L864 465L863 464z"/>
<path style="fill:#3d5cfc; stroke:none;" d="M867 464L868 465L867 464z"/>
<path style="fill:#e0b179; stroke:none;" d="M469.333 465.667L469.667 466.333L469.333 465.667M517 465L518 466L517 465z"/>
<path style="fill:#955c39; stroke:none;" d="M811.333 465.667L811.667 466.333L811.333 465.667z"/>
<path style="fill:#3d5cfc; stroke:none;" d="M822 465L823 466L822 465z"/>
<path style="fill:#e0b179; stroke:none;" d="M862 465L863 466L862 465M867 465L868 466L867 465M232.333 466.667L232.667 467.333L232.333 466.667M261 466L262 467L261 466z"/>
<path style="fill:#955c39; stroke:none;" d="M470.333 466.667L470.667 467.333L470.333 466.667z"/>
<path style="fill:#e0b179; stroke:none;" d="M482 466L483 467L482 466M748 466L749 467L748 466M762.333 466.667L762.667 467.333L762.333 466.667M823 466L825 468L823 466M861 466L860 468L861 466z"/>
<path style="fill:#3d5cfc; stroke:none;" d="M866 466L867 467L866 466z"/>
<path style="fill:#e0b179; stroke:none;" d="M220.333 467.667L220.667 468.333L220.333 467.667z"/>
<path style="fill:#955c39; stroke:none;" d="M261 467L262 468L261 467z"/>
<path style="fill:#3d5cfc; stroke:none;" d="M482 467L483 468L482 467z"/>
<path style="fill:#e0b179; stroke:none;" d="M516 467L517 468L516 467M528.333 467.667L528.667 468.333L528.333 467.667z"/>
<path style="fill:#3d5cfc; stroke:none;" d="M761.333 467.667L761.667 468.333L761.333 467.667z"/>
<path style="fill:#e0b179; stroke:none;" d="M811 467L812 468L811 467z"/>
<path style="fill:#3d5cfc; stroke:none;" d="M823 467L824 468L823 467z"/>
<path style="fill:#955c39; stroke:none;" d="M861 467L862 468L861 467z"/>
<path style="fill:#e0b179; stroke:none;" d="M866 467L867 468L866 467z"/>
<path style="fill:#3d5cfc; stroke:none;" d="M232.333 468.667L232.667 469.333L232.333 468.667z"/>
<path style="fill:#955c39; stroke:none;" d="M260 468L261 469L260 468z"/>
<path style="fill:#e0b179; stroke:none;" d="M470 468L471 469L470 468z"/>
<path style="fill:#3d5cfc; stroke:none;" d="M483 468L484 469L483 468z"/>
<path style="fill:#e0b179; stroke:none;" d="M749.333 468.667L749.667 469.333L749.333 468.667z"/>
<path style="fill:#955c39; stroke:none;" d="M812 468L814 471L812 468z"/>
<path style="fill:#3d5cfc; stroke:none;" d="M824 468L825 469L824 468z"/>
<path style="fill:#e0b179; stroke:none;" d="M859 468L860 469L859 468z"/>
<path style="fill:#3d5cfc; stroke:none;" d="M865 468L864 470L865 468z"/>
<path style="fill:#e0b179; stroke:none;" d="M259 469L260 470L259 469z"/>
<path style="fill:#955c39; stroke:none;" d="M471 469L472 470L471 469z"/>
<path style="fill:#e0b179; stroke:none;" d="M484 469L485 470L484 469M515 469L516 470L515 469z"/>
<path style="fill:#3d5cfc; stroke:none;" d="M528 469L529 470L528 469z"/>
<path style="fill:#955c39; stroke:none;" d="M750.333 469.667L750.667 470.333L750.333 469.667z"/>
<path style="fill:#e0b179; stroke:none;" d="M761.333 469.667L761.667 470.333L761.333 469.667z"/>
<path style="fill:#3d5cfc; stroke:none;" d="M825 469L826 470L825 469z"/>
<path style="fill:#e0b179; stroke:none;" d="M858 469L859 470L858 469M865 469L866 470L865 469M233 470L234 471L233 470M258 470L259 471L258 470z"/>
<path style="fill:#3d5cfc; stroke:none;" d="M271.333 470.667L271.667 471.333L271.333 470.667z"/>
<path style="fill:#e0b179; stroke:none;" d="M471 470L472 471L471 470M485 470L488 473L485 470M514 470L515 471L514 470M529 470L530 471L529 470z"/>
<path style="fill:#3d5cfc; stroke:none;" d="M760.333 470.667L760.667 471.333L760.333 470.667z"/>
<path style="fill:#e0b179; stroke:none;" d="M812 470L813 471L812 470z"/>
<path style="fill:#3d5cfc; stroke:none;" d="M826 470L827 471L826 470z"/>
<path style="fill:#e0b179; stroke:none;" d="M857 470L858 471L857 470M864 470L865 471L864 470M160 471L160 474L161 474L160 471M171 471L171 474L172 474L171 471z"/>
<path style="fill:#3d5cfc; stroke:none;" d="M233 471L234 472L233 471z"/>
<path style="fill:#e0b179; stroke:none;" d="M257 471L258 472L257 471M262 471L263 472L262 471z"/>
<path style="fill:#955c39; stroke:none;" d="M263 471L263 476L264 476L263 471M472 471L473 472L472 471z"/>
<path style="fill:#3d5cfc; stroke:none;" d="M485 471L486 472L485 471z"/>
<path style="fill:#e0b179; stroke:none;" d="M513 471L514 472L513 471z"/>
<path style="fill:#3d5cfc; stroke:none;" d="M529 471L530 472L529 471z"/>
<path style="fill:#e0b179; stroke:none;" d="M576 471L576 474L577 474L576 471z"/>
<path style="fill:#3d5cfc; stroke:none;" d="M586 471L586 474L587 474L586 471z"/>
<path style="fill:#e0b179; stroke:none;" d="M664 471L664 474L665 474L664 471M675 471L675 474L676 474L675 471M750 471L751 472L750 471M813 471L814 472L813 471z"/>
<path style="fill:#3d5cfc; stroke:none;" d="M827 471L828 472L827 471z"/>
<path style="fill:#955c39; stroke:none;" d="M856 471L857 472L856 471z"/>
<path style="fill:#3d5cfc; stroke:none;" d="M863 471L864 472L863 471z"/>
<path style="fill:#e0b179; stroke:none;" d="M912 471L912 474L913 474L912 471z"/>
<path style="fill:#3d5cfc; stroke:none;" d="M922 471L922 474L923 474L922 471M234 472L235 473L234 472z"/>
<path style="fill:#955c39; stroke:none;" d="M256 472L257 473L256 472z"/>
<path style="fill:#e0b179; stroke:none;" d="M261 472L262 473L261 472M272 472L273 473L272 472M349.333 472.667L349.667 473.333L349.333 472.667z"/>
<path style="fill:#3d5cfc; stroke:none;" d="M359 472L361 478L362 478L359 472z"/>
<path style="fill:#e0b179; stroke:none;" d="M472 472L473 473L472 472z"/>
<path style="fill:#3d5cfc; stroke:none;" d="M486 472L487 473L486 472z"/>
<path style="fill:#e0b179; stroke:none;" d="M512 472L513 473L512 472z"/>
<path style="fill:#955c39; stroke:none;" d="M518 472L519 473L518 472z"/>
<path style="fill:#3d5cfc; stroke:none;" d="M530 472L531 473L530 472z"/>
<path style="fill:#e0b179; stroke:none;" d="M531 472L532 473L531 472z"/>
<path style="fill:#955c39; stroke:none;" d="M751.333 472.667L751.667 473.333L751.333 472.667z"/>
<path style="fill:#e0b179; stroke:none;" d="M760.333 472.667L760.667 473.333L760.333 472.667z"/>
<path style="fill:#955c39; stroke:none;" d="M814 472L815 473L814 472z"/>
<path style="fill:#3d5cfc; stroke:none;" d="M828 472L829 473L828 472z"/>
<path style="fill:#e0b179; stroke:none;" d="M854 472L855 473L854 472z"/>
<path style="fill:#3d5cfc; stroke:none;" d="M862 472L863 473L862 472z"/>
<path style="fill:#e0b179; stroke:none;" d="M221.333 473.667L221.667 474.333L221.333 473.667z"/>
<path style="fill:#3d5cfc; stroke:none;" d="M235 473L236 474L235 473z"/>
<path style="fill:#e0b179; stroke:none;" d="M254 473L255 474L254 473z"/>
<path style="fill:#955c39; stroke:none;" d="M255 473L256 474L255 473z"/>
<path style="fill:#3d5cfc; stroke:none;" d="M260 473L261 474L260 473M272 473L273 474L272 473z"/>
<path style="fill:#e0b179; stroke:none;" d="M307.333 473.667L307.667 474.333L307.333 473.667z"/>
<path style="fill:#955c39; stroke:none;" d="M473 473L475 475L473 473z"/>
<path style="fill:#e0b179; stroke:none;" d="M488 473L489 474L488 473M511 473L512 474L511 473z"/>
<path style="fill:#3d5cfc; stroke:none;" d="M516 473L515 475L516 473z"/>
<path style="fill:#e0b179; stroke:none;" d="M518 473L518 486L519 486L518 473z"/>
<path style="fill:#955c39; stroke:none;" d="M533 473L534 474L533 473z"/>
<path style="fill:#e0b179; stroke:none;" d="M534 473L535 474L534 473z"/>
<path style="fill:#3d5cfc; stroke:none;" d="M759.333 473.667L759.667 474.333L759.333 473.667z"/>
<path style="fill:#e0b179; stroke:none;" d="M814 473L815 474L814 473M830 473L831 474L830 473M852 473L853 474L852 473z"/>
<path style="fill:#955c39; stroke:none;" d="M853 473L854 474L853 473z"/>
<path style="fill:#e0b179; stroke:none;" d="M862 473L863 474L862 473z"/>
<path style="fill:#955c39; stroke:none;" d="M160.333 474.667L160.667 475.333L160.333 474.667z"/>
<path style="fill:#3d5cfc; stroke:none;" d="M171.333 474.667L171.667 475.333L171.333 474.667M236 474L237 475L236 474z"/>
<path style="fill:#955c39; stroke:none;" d="M253 474L254 475L253 474z"/>
<path style="fill:#3d5cfc; stroke:none;" d="M259 474L260 475L259 474z"/>
<path style="fill:#e0b179; stroke:none;" d="M273 474L274 475L273 474z"/>
<path style="fill:#955c39; stroke:none;" d="M283 474L284 475L283 474z"/>
<path style="fill:#e0b179; stroke:none;" d="M284 474L285 475L284 474z"/>
<path style="fill:#955c39; stroke:none;" d="M349.333 474.667L349.667 475.333L349.333 474.667z"/>
<path style="fill:#e0b179; stroke:none;" d="M360 474L361 475L360 474M473 474L474 475L473 474z"/>
<path style="fill:#3d5cfc; stroke:none;" d="M489 474L490 475L489 474z"/>
<path style="fill:#955c39; stroke:none;" d="M510 474L511 475L510 474z"/>
<path style="fill:#e0b179; stroke:none;" d="M516 474L517 475L516 474z"/>
<path style="fill:#3d5cfc; stroke:none;" d="M539 474L538 478L539 478L539 474z"/>
<path style="fill:#955c39; stroke:none;" d="M576.333 474.667L576.667 475.333L576.333 474.667z"/>
<path style="fill:#e0b179; stroke:none;" d="M587 474L588 475L587 474z"/>
<path style="fill:#955c39; stroke:none;" d="M664.333 474.667L664.667 475.333L664.333 474.667z"/>
<path style="fill:#3d5cfc; stroke:none;" d="M675.333 474.667L675.667 475.333L675.333 474.667z"/>
<path style="fill:#e0b179; stroke:none;" d="M751 474L752 475L751 474z"/>
<path style="fill:#955c39; stroke:none;" d="M815 474L816 475L815 474z"/>
<path style="fill:#3d5cfc; stroke:none;" d="M831 474L832 475L831 474z"/>
<path style="fill:#e0b179; stroke:none;" d="M832 474L833 475L832 474z"/>
<path style="fill:#955c39; stroke:none;" d="M850 474L851 475L850 474z"/>
<path style="fill:#e0b179; stroke:none;" d="M861 474L862 475L861 474z"/>
<path style="fill:#955c39; stroke:none;" d="M912.333 474.667L912.667 475.333L912.333 474.667z"/>
<path style="fill:#e0b179; stroke:none;" d="M923 474L924 475L923 474M172 475L174 478L172 475z"/>
<path style="fill:#955c39; stroke:none;" d="M222 475L223 479L224 479L222 475z"/>
<path style="fill:#3d5cfc; stroke:none;" d="M237 475L238 476L237 475z"/>
<path style="fill:#e0b179; stroke:none;" d="M238 475L239 476L238 475z"/>
<path style="fill:#955c39; stroke:none;" d="M251 475L252 476L251 475z"/>
<path style="fill:#3d5cfc; stroke:none;" d="M258 475L259 476L258 475z"/>
<path style="fill:#e0b179; stroke:none;" d="M274 475L275 476L274 475M281 475L282 476L281 475z"/>
<path style="fill:#955c39; stroke:none;" d="M282 475L283 476L282 475z"/>
<path style="fill:#3d5cfc; stroke:none;" d="M284 475L284 478L285 478L284 475z"/>
<path style="fill:#955c39; stroke:none;" d="M307 475L306 478L307 475z"/>
<path style="fill:#e0b179; stroke:none;" d="M318 475L319 476L318 475M474 475L475 476L474 475z"/>
<path style="fill:#3d5cfc; stroke:none;" d="M490 475L491 476L490 475z"/>
<path style="fill:#e0b179; stroke:none;" d="M491 475L492 476L491 475M508 475L509 476L508 475z"/>
<path style="fill:#955c39; stroke:none;" d="M509 475L510 476L509 475z"/>
<path style="fill:#e0b179; stroke:none;" d="M515 475L516 476L515 475M575 475L574 478L575 475z"/>
<path style="fill:#3d5cfc; stroke:none;" d="M587 475L589 478L587 475z"/>
<path style="fill:#e0b179; stroke:none;" d="M676 475L678 478L676 475z"/>
<path style="fill:#955c39; stroke:none;" d="M752.333 475.667L752.667 476.333L752.333 475.667z"/>
<path style="fill:#e0b179; stroke:none;" d="M759.333 475.667L759.667 476.333L759.333 475.667z"/>
<path style="fill:#955c39; stroke:none;" d="M816 475L818 477L816 475z"/>
<path style="fill:#3d5cfc; stroke:none;" d="M834 475L835 476L834 475z"/>
<path style="fill:#e0b179; stroke:none;" d="M835.667 475.333L836.333 475.667L835.667 475.333M846 475L847 476L846 475z"/>
<path style="fill:#955c39; stroke:none;" d="M847 475L848 476L847 475z"/>
<path style="fill:#3d5cfc; stroke:none;" d="M860 475L861 476L860 475z"/>
<path style="fill:#e0b179; stroke:none;" d="M911 475L910 478L911 475z"/>
<path style="fill:#3d5cfc; stroke:none;" d="M923 475L925 478L923 475z"/>
<path style="fill:#e0b179; stroke:none;" d="M159 476L160 477L159 476z"/>
<path style="fill:#3d5cfc; stroke:none;" d="M240 476L241 477L240 476z"/>
<path style="fill:#e0b179; stroke:none;" d="M241 476L242 477L241 476M248 476L249 477L248 476z"/>
<path style="fill:#955c39; stroke:none;" d="M249 476L250 477L249 476z"/>
<path style="fill:#3d5cfc; stroke:none;" d="M257 476L258 477L257 476z"/>
<path style="fill:#e0b179; stroke:none;" d="M263.333 476.667L263.667 477.333L263.333 476.667z"/>
<path style="fill:#3d5cfc; stroke:none;" d="M275 476L276 477L275 476z"/>
<path style="fill:#e0b179; stroke:none;" d="M276 476L277 477L276 476M279 476L280 477L279 476z"/>
<path style="fill:#955c39; stroke:none;" d="M280 476L281 477L280 476z"/>
<path style="fill:#e0b179; stroke:none;" d="M306 476L307 477L306 476z"/>
<path style="fill:#3d5cfc; stroke:none;" d="M318 476L319 477L318 476z"/>
<path style="fill:#e0b179; stroke:none;" d="M348 476L349 477L348 476M361 476L362 477L361 476z"/>
<path style="fill:#955c39; stroke:none;" d="M475 476L476 477L475 476z"/>
<path style="fill:#3d5cfc; stroke:none;" d="M492 476L493 477L492 476z"/>
<path style="fill:#e0b179; stroke:none;" d="M493 476L494 477L493 476M506 476L507 477L506 476z"/>
<path style="fill:#955c39; stroke:none;" d="M507 476L508 477L507 476z"/>
<path style="fill:#3d5cfc; stroke:none;" d="M514 476L515 477L514 476z"/>
<path style="fill:#e0b179; stroke:none;" d="M588 476L589 477L588 476M663 476L664 477L663 476z"/>
<path style="fill:#3d5cfc; stroke:none;" d="M758 476L758 479L759 479L758 476z"/>
<path style="fill:#e0b179; stroke:none;" d="M816 476L817 477L816 476z"/>
<path style="fill:#3d5cfc; stroke:none;" d="M859 476L860 477L859 476z"/>
<path style="fill:#e0b179; stroke:none;" d="M924 476L925 477L924 476z"/>
<path style="fill:#955c39; stroke:none;" d="M159 477L160 478L159 477z"/>
<path style="fill:#3d5cfc; stroke:none;" d="M172 477L173 478L172 477z"/>
<path style="fill:#e0b179; stroke:none;" d="M222 477L223 478L222 477z"/>
<path style="fill:#3d5cfc; stroke:none;" d="M256 477L257 478L256 477z"/>
<path style="fill:#e0b179; stroke:none;" d="M319 477L320 478L319 477z"/>
<path style="fill:#955c39; stroke:none;" d="M348 477L349 478L348 477M476 477L477 478L476 477z"/>
<path style="fill:#3d5cfc; stroke:none;" d="M495 477L496 478L495 477z"/>
<path style="fill:#e0b179; stroke:none;" d="M496.667 477.333L497.333 477.667L496.667 477.333M502.667 477.333L503.333 477.667L502.667 477.333z"/>
<path style="fill:#955c39; stroke:none;" d="M504 477L505 478L504 477z"/>
<path style="fill:#3d5cfc; stroke:none;" d="M513 477L514 478L513 477z"/>
<path style="fill:#e0b179; stroke:none;" d="M539 477L540 478L539 477z"/>
<path style="fill:#955c39; stroke:none;" d="M575 477L576 478L575 477M663 477L664 478L663 477z"/>
<path style="fill:#3d5cfc; stroke:none;" d="M676 477L677 478L676 477z"/>
<path style="fill:#e0b179; stroke:none;" d="M752 477L753 478L752 477M817 477L818 478L817 477z"/>
<path style="fill:#3d5cfc; stroke:none;" d="M858 477L859 478L858 477z"/>
<path style="fill:#955c39; stroke:none;" d="M911 477L912 478L911 477M158 478L159 479L158 478z"/>
<path style="fill:#3d5cfc; stroke:none;" d="M173 478L174 479L173 478z"/>
<path style="fill:#e0b179; stroke:none;" d="M255 478L256 479L255 478z"/>
<path style="fill:#955c39; stroke:none;" d="M264.333 478.667L264.667 479.333L264.333 478.667z"/>
<path style="fill:#3d5cfc; stroke:none;" d="M283 478L282 480L283 478z"/>
<path style="fill:#e0b179; stroke:none;" d="M305 478L306 479L305 478M320 478L321 479L320 478z"/>
<path style="fill:#955c39; stroke:none;" d="M347 478L348 479L347 478z"/>
<path style="fill:#3d5cfc; stroke:none;" d="M362 478L363 479L362 478z"/>
<path style="fill:#955c39; stroke:none;" d="M477 478L478 479L477 478z"/>
<path style="fill:#3d5cfc; stroke:none;" d="M512 478L513 479L512 478M536 478L537 479L536 478z"/>
<path style="fill:#955c39; stroke:none;" d="M574 478L575 479L574 478z"/>
<path style="fill:#3d5cfc; stroke:none;" d="M589 478L590 479L589 478z"/>
<path style="fill:#955c39; stroke:none;" d="M662 478L663 479L662 478z"/>
<path style="fill:#3d5cfc; stroke:none;" d="M677 478L678 479L677 478z"/>
<path style="fill:#955c39; stroke:none;" d="M753.333 478.667L753.667 479.333L753.333 478.667z"/>
<path style="fill:#e0b179; stroke:none;" d="M818 478L819 479L818 478z"/>
<path style="fill:#3d5cfc; stroke:none;" d="M857 478L858 479L857 478z"/>
<path style="fill:#955c39; stroke:none;" d="M910 478L911 479L910 478z"/>
<path style="fill:#3d5cfc; stroke:none;" d="M925 478L926 479L925 478z"/>
<path style="fill:#955c39; stroke:none;" d="M157 479L158 480L157 479z"/>
<path style="fill:#3d5cfc; stroke:none;" d="M174 479L175 480L174 479z"/>
<path style="fill:#955c39; stroke:none;" d="M224 479L225 480L224 479z"/>
<path style="fill:#3d5cfc; stroke:none;" d="M253 479L254 480L253 479z"/>
<path style="fill:#e0b179; stroke:none;" d="M254 479L255 480L254 479M283 479L284 480L283 479M304 479L305 480L304 479M321 479L322 480L321 479z"/>
<path style="fill:#955c39; stroke:none;" d="M346 479L347 480L346 479z"/>
<path style="fill:#3d5cfc; stroke:none;" d="M363 479L364 480L363 479z"/>
<path style="fill:#955c39; stroke:none;" d="M478 479L479 480L478 479z"/>
<path style="fill:#3d5cfc; stroke:none;" d="M511 479L512 480L511 479z"/>
<path style="fill:#e0b179; stroke:none;" d="M534 479L535 480L534 479M572 479L573 480L572 479z"/>
<path style="fill:#3d5cfc; stroke:none;" d="M590 479L591 480L590 479z"/>
<path style="fill:#955c39; stroke:none;" d="M661 479L662 480L661 479z"/>
<path style="fill:#3d5cfc; stroke:none;" d="M678 479L679 480L678 479z"/>
<path style="fill:#e0b179; stroke:none;" d="M758 479L759 480L758 479M819 479L820 480L819 479M856 479L857 480L856 479M908 479L909 480L908 479z"/>
<path style="fill:#3d5cfc; stroke:none;" d="M926 479L927 480L926 479z"/>
<path style="fill:#e0b179; stroke:none;" d="M155 480L156 481L155 480z"/>
<path style="fill:#3d5cfc; stroke:none;" d="M176 480L177 481L176 480z"/>
<path style="fill:#e0b179; stroke:none;" d="M224 480L225 481L224 480z"/>
<path style="fill:#3d5cfc; stroke:none;" d="M252 480L253 481L252 480z"/>
<path style="fill:#e0b179; stroke:none;" d="M264.333 480.667L264.667 481.333L264.333 480.667M282 480L283 481L282 480M302 480L303 481L302 480z"/>
<path style="fill:#955c39; stroke:none;" d="M303 480L304 481L303 480z"/>
<path style="fill:#3d5cfc; stroke:none;" d="M322 480L323 481L322 480z"/>
<path style="fill:#e0b179; stroke:none;" d="M344 480L345 481L344 480z"/>
<path style="fill:#955c39; stroke:none;" d="M345 480L346 481L345 480z"/>
<path style="fill:#3d5cfc; stroke:none;" d="M364 480L365 481L364 480z"/>
<path style="fill:#e0b179; stroke:none;" d="M365 480L366 481L365 480M479 480L480 481L479 480z"/>
<path style="fill:#3d5cfc; stroke:none;" d="M510 480L511 481L510 480M531 480L532 481L531 480z"/>
<path style="fill:#e0b179; stroke:none;" d="M532 480L533 481L532 480M570 480L571 481L570 480M592 480L593 481L592 480M659 480L660 481L659 480z"/>
<path style="fill:#3d5cfc; stroke:none;" d="M680 480L681 481L680 480z"/>
<path style="fill:#e0b179; stroke:none;" d="M753 480L754 481L753 480z"/>
<path style="fill:#3d5cfc; stroke:none;" d="M757.333 480.667L757.667 481.333L757.333 480.667z"/>
<path style="fill:#e0b179; stroke:none;" d="M820 480L821 481L820 480z"/>
<path style="fill:#955c39; stroke:none;" d="M821 480L822 481L821 480z"/>
<path style="fill:#3d5cfc; stroke:none;" d="M854 480L855 481L854 480z"/>
<path style="fill:#e0b179; stroke:none;" d="M855 480L856 481L855 480M906 480L907 481L906 480M928 480L929 481L928 480M151.667 481.333L152.333 481.667L151.667 481.333z"/>
<path style="fill:#955c39; stroke:none;" d="M153 481L154 482L153 481M179 481L180 482L179 481z"/>
<path style="fill:#e0b179; stroke:none;" d="M180 481L181 482L180 481M225 481L226 482L225 481M251 481L252 482L251 481z"/>
<path style="fill:#955c39; stroke:none;" d="M265.333 481.667L265.667 482.333L265.333 481.667z"/>
<path style="fill:#e0b179; stroke:none;" d="M281 481L282 482L281 481M300 481L301 482L300 481z"/>
<path style="fill:#955c39; stroke:none;" d="M301 481L302 482L301 481M325 481L326 482L325 481z"/>
<path style="fill:#e0b179; stroke:none;" d="M326 481L327 482L326 481M341 481L342 482L341 481z"/>
<path style="fill:#955c39; stroke:none;" d="M342 481L343 482L342 481z"/>
<path style="fill:#3d5cfc; stroke:none;" d="M367 481L368 482L367 481z"/>
<path style="fill:#e0b179; stroke:none;" d="M480 481L481 482L480 481z"/>
<path style="fill:#955c39; stroke:none;" d="M481 481L482 482L481 481z"/>
<path style="fill:#e0b179; stroke:none;" d="M509 481L510 482L509 481z"/>
<path style="fill:#3d5cfc; stroke:none;" d="M529 481L530 482L529 481z"/>
<path style="fill:#e0b179; stroke:none;" d="M566 481L567 482L566 481z"/>
<path style="fill:#955c39; stroke:none;" d="M567 481L568 482L567 481z"/>
<path style="fill:#3d5cfc; stroke:none;" d="M594 481L595 482L594 481z"/>
<path style="fill:#e0b179; stroke:none;" d="M595.667 481.333L596.333 481.667L595.667 481.333M655.667 481.333L656.333 481.667L655.667 481.333z"/>
<path style="fill:#955c39; stroke:none;" d="M657 481L658 482L657 481M683 481L684 482L683 481z"/>
<path style="fill:#e0b179; stroke:none;" d="M684 481L685 482L684 481z"/>
<path style="fill:#955c39; stroke:none;" d="M754.333 481.667L754.667 482.333L754.333 481.667M822 481L823 482L822 481z"/>
<path style="fill:#3d5cfc; stroke:none;" d="M853 481L854 482L853 481z"/>
<path style="fill:#e0b179; stroke:none;" d="M902 481L903 482L902 481z"/>
<path style="fill:#955c39; stroke:none;" d="M903 481L904 482L903 481z"/>
<path style="fill:#3d5cfc; stroke:none;" d="M930 481L931 482L930 481z"/>
<path style="fill:#e0b179; stroke:none;" d="M931.667 481.333L932.333 481.667L931.667 481.333M146 482L146 485L147 485L146 482z"/>
<path style="fill:#955c39; stroke:none;" d="M147 482L148 483L147 482z"/>
<path style="fill:#3d5cfc; stroke:none;" d="M183 482L184 483L183 482z"/>
<path style="fill:#e0b179; stroke:none;" d="M184 482L184 485L185 485L184 482M226 482L227 483L226 482z"/>
<path style="fill:#3d5cfc; stroke:none;" d="M249 482L250 483L249 482M279 482L280 483L279 482z"/>
<path style="fill:#e0b179; stroke:none;" d="M280 482L281 483L280 482z"/>
<path style="fill:#955c39; stroke:none;" d="M297 482L297 485L298 485L297 482z"/>
<path style="fill:#e0b179; stroke:none;" d="M329 482L329 485L330 485L329 482z"/>
<path style="fill:#955c39; stroke:none;" d="M339 482L339 485L340 485L339 482z"/>
<path style="fill:#3d5cfc; stroke:none;" d="M370 482L370 485L371 485L370 482z"/>
<path style="fill:#e0b179; stroke:none;" d="M482 482L483 483L482 482z"/>
<path style="fill:#3d5cfc; stroke:none;" d="M507 482L508 483L507 482z"/>
<path style="fill:#e0b179; stroke:none;" d="M508 482L509 483L508 482M527 482L528 483L527 482z"/>
<path style="fill:#955c39; stroke:none;" d="M564 482L564 485L565 485L564 482z"/>
<path style="fill:#3d5cfc; stroke:none;" d="M600 482L601 483L600 482z"/>
<path style="fill:#e0b179; stroke:none;" d="M601 482L601 485L602 485L601 482M650 482L650 485L651 485L650 482z"/>
<path style="fill:#955c39; stroke:none;" d="M651 482L652 483L651 482z"/>
<path style="fill:#3d5cfc; stroke:none;" d="M687 482L688 483L687 482z"/>
<path style="fill:#e0b179; stroke:none;" d="M688 482L688 485L689 485L688 482M757 482L758 483L757 482M823 482L824 483L823 482z"/>
<path style="fill:#3d5cfc; stroke:none;" d="M851 482L852 483L851 482z"/>
<path style="fill:#e0b179; stroke:none;" d="M852 482L853 483L852 482z"/>
<path style="fill:#955c39; stroke:none;" d="M900 482L900 485L901 485L900 482z"/>
<path style="fill:#3d5cfc; stroke:none;" d="M936 482L937 483L936 482z"/>
<path style="fill:#e0b179; stroke:none;" d="M937 482L937 485L938 485L937 482M227 483L228 484L227 483z"/>
<path style="fill:#955c39; stroke:none;" d="M228 483L229 484L228 483z"/>
<path style="fill:#3d5cfc; stroke:none;" d="M247 483L248 484L247 483z"/>
<path style="fill:#955c39; stroke:none;" d="M266 483L267 484L266 483z"/>
<path style="fill:#3d5cfc; stroke:none;" d="M278 483L279 484L278 483z"/>
<path style="fill:#955c39; stroke:none;" d="M484 483L485 484L484 483z"/>
<path style="fill:#3d5cfc; stroke:none;" d="M505 483L506 484L505 483z"/>
<path style="fill:#e0b179; stroke:none;" d="M506 483L507 484L506 483z"/>
<path style="fill:#3d5cfc; stroke:none;" d="M524 483L525 484L524 483z"/>
<path style="fill:#e0b179; stroke:none;" d="M525 483L526 484L525 483M754.333 483.667L754.667 484.333L754.333 483.667z"/>
<path style="fill:#3d5cfc; stroke:none;" d="M756.333 483.667L756.667 484.333L756.333 483.667z"/>
<path style="fill:#e0b179; stroke:none;" d="M825 483L826 484L825 483z"/>
<path style="fill:#3d5cfc; stroke:none;" d="M849 483L850 484L849 483z"/>
<path style="fill:#e0b179; stroke:none;" d="M850 483L851 484L850 483M229 484L230 485L229 484z"/>
<path style="fill:#3d5cfc; stroke:none;" d="M245 484L246 485L245 484z"/>
<path style="fill:#e0b179; stroke:none;" d="M266 484L267 485L266 484z"/>
<path style="fill:#3d5cfc; stroke:none;" d="M276 484L277 485L276 484z"/>
<path style="fill:#e0b179; stroke:none;" d="M277 484L278 485L277 484M486 484L487 485L486 484z"/>
<path style="fill:#3d5cfc; stroke:none;" d="M503 484L504 485L503 484z"/>
<path style="fill:#e0b179; stroke:none;" d="M504 484L505 485L504 484z"/>
<path style="fill:#3d5cfc; stroke:none;" d="M522 484L523 485L522 484z"/>
<path style="fill:#955c39; stroke:none;" d="M755.333 484.667L755.667 485.333L755.333 484.667z"/>
<path style="fill:#e0b179; stroke:none;" d="M827 484L828 485L827 484z"/>
<path style="fill:#955c39; stroke:none;" d="M828 484L829 485L828 484z"/>
<path style="fill:#3d5cfc; stroke:none;" d="M847 484L848 485L847 484z"/>
<path style="fill:#e0b179; stroke:none;" d="M231 485L232 486L231 485z"/>
<path style="fill:#955c39; stroke:none;" d="M232 485L233 486L232 485z"/>
<path style="fill:#3d5cfc; stroke:none;" d="M241 485L242 486L241 485z"/>
<path style="fill:#e0b179; stroke:none;" d="M242 485L243 486L242 485M267 485L268 486L267 485z"/>
<path style="fill:#955c39; stroke:none;" d="M268 485L269 486L268 485z"/>
<path style="fill:#3d5cfc; stroke:none;" d="M274 485L275 486L274 485z"/>
<path style="fill:#e0b179; stroke:none;" d="M275 485L276 486L275 485M489 485L490 486L489 485z"/>
<path style="fill:#955c39; stroke:none;" d="M490.667 485.333L491.333 485.667L490.667 485.333z"/>
<path style="fill:#3d5cfc; stroke:none;" d="M500 485L501 486L500 485z"/>
<path style="fill:#e0b179; stroke:none;" d="M501 485L502 486L501 485z"/>
<path style="fill:#955c39; stroke:none;" d="M519 485L520 486L519 485z"/>
<path style="fill:#e0b179; stroke:none;" d="M520 485L521 486L520 485M756 485L757 486L756 485M830 485L831 486L830 485z"/>
<path style="fill:#955c39; stroke:none;" d="M831 485L832 486L831 485z"/>
<path style="fill:#3d5cfc; stroke:none;" d="M843 485L844 486L843 485z"/>
<path style="fill:#e0b179; stroke:none;" d="M844 485L845 486L844 485z"/>
<path style="fill:#3d5cfc; stroke:none;" d="M116.113 495.742C110.1 498.366 114.499 502.783 119.004 502.981C131.617 503.534 144.374 503 157 503L292 503L767 503L925 503L964 503C967.214 503 974.748 504.366 976.953 501.401C980.913 496.077 970.781 495.038 968 495.004C955.004 494.843 941.997 495 929 495L770 495L305 495L171 495L133 495C127.998 495 120.78 493.705 116.113 495.742z"/>
<path style="fill:#e0b179; stroke:none;" d="M974 495L975 496L974 495M977 496L978 497L977 496M978 497L978 502L979 502L978 497M977 502L978 503L977 502z"/>
</svg>
